<svg enable-background="new 0 0 108.3 19" viewBox="0 0 108.3 19" xmlns="http://www.w3.org/2000/svg"><path clip-rule="evenodd" d="m31.1 14.5h1.1v-3.7h3.9v-1.1h-3.9v-2.6h4.2v-1.1h-5.3zm13.8-.1c.5-.2 1-.5 1.4-.9s.7-.9.9-1.4c.2-.6.3-1.2.3-1.8s-.1-1.2-.3-1.8c-.2-.5-.5-1-.9-1.4s-.9-.7-1.4-.9c-1.1-.5-2.4-.5-3.6 0-.5.2-1 .5-1.4.9s-.7.9-.9 1.4c-.2.6-.3 1.2-.3 1.8s.1 1.2.3 1.8c.4 1.1 1.2 1.9 2.3 2.4 1.2.3 2.4.3 3.6-.1zm-3.1-1.1c-.4-.2-.7-.4-1-.7s-.5-.7-.6-1.1c-.2-.4-.2-.9-.2-1.3 0-.5.1-.9.2-1.3s.4-.8.6-1.1c.3-.3.6-.6 1-.7.8-.4 1.8-.4 2.6 0 .4.2.7.4 1 .7s.5.7.6 1.1c.2.4.2.9.2 1.3s-.1.9-.2 1.3-.4.8-.6 1.1c-.3.3-.6.5-1 .7-.8.4-1.8.4-2.6 0zm8.6 1.2h5.1v-1.1h-3.9v-7.4h-1.1zm7.4 0h5.1v-1.1h-3.9v-7.4h-1.1zm13.1-.1c.5-.2 1-.5 1.4-.9s.7-.9.9-1.4c.2-.6.3-1.2.3-1.8s-.1-1.2-.3-1.8c-.2-.5-.5-1-.9-1.4s-.9-.7-1.4-.9c-1.1-.5-2.4-.5-3.6 0-.5.2-1 .5-1.4.9s-.7.9-.9 1.4c-.2.6-.3 1.2-.3 1.8s.1 1.2.3 1.8c.4 1.1 1.2 1.9 2.3 2.4 1.2.3 2.5.3 3.6-.1zm-3.1-1.1c-.4-.2-.7-.4-1-.7s-.5-.7-.6-1.1c-.2-.4-.2-.9-.2-1.3 0-.5.1-.9.2-1.3s.4-.8.6-1.1c.3-.3.6-.6 1-.7.8-.4 1.8-.4 2.6 0 .4.2.7.4 1 .7s.5.7.6 1.1c.2.4.2.9.2 1.3s-.1.9-.2 1.3-.4.8-.6 1.1c-.3.3-.6.5-1 .7-.8.4-1.7.4-2.6 0zm10 1.2h1.2l2-6.9 2.1 6.9h1.2l2.6-8.5h-1.2l-1.9 6.8-2-6.8h-1.3l-2 6.8-2-6.8h-1.2zm15.7-8.5v5.4c0 .5.1.9.2 1.3.2.4.4.7.7 1.1.3.3.7.5 1.1.7.8.3 1.8.3 2.6 0 .4-.2.7-.4 1-.7s.5-.7.7-1.1.3-.9.2-1.3v-5.4h-1v5.2c0 .3 0 .6-.1.8-.1.3-.2.6-.4.8-.4.5-1 .8-1.7.8-.3 0-.7-.1-1-.2s-.5-.3-.7-.6c-.2-.2-.3-.5-.4-.8s-.1-.5-.1-.8v-5.2zm9.1 7.5c.3.4.7.7 1.2.9s1 .3 1.6.3c.4 0 .8-.1 1.1-.2s.7-.3.9-.5c.3-.2.5-.5.6-.8.2-.3.2-.7.2-1.1s-.1-.8-.3-1.2c-.2-.3-.5-.5-.8-.7s-.7-.3-1-.4-.7-.2-1-.3-.6-.3-.8-.5-.3-.5-.3-.8c0-.1 0-.3.1-.4.1-.2.2-.3.3-.4s.3-.3.5-.3c.3-.1.5-.1.8-.1s.6.1.9.2c.2.1.5.3.6.5l.9-.8c-.3-.4-.7-.6-1.1-.8-.4-.1-.9-.2-1.3-.2-.5 0-.9.1-1.3.2-.3.1-.6.3-.9.6-.2.2-.4.5-.5.8s-.2.5-.2.8c-.1.8.4 1.6 1.1 2.1.3.2.7.3 1 .4.4.1.7.2 1 .3s.5.3.8.4c.2.2.3.5.3.8 0 .2 0 .4-.1.6s-.2.3-.4.4-.4.2-.6.3-.4.1-.6.1c-.3 0-.7-.1-1-.2-.3-.2-.6-.4-.8-.7z" fill="#010101" fill-rule="evenodd"/><path d="m16.4 0h-13.8c-1.4 0-2.6 1.2-2.6 2.6v13.7c0 1.5 1.2 2.7 2.6 2.7h13.7c1.5 0 2.6-1.2 2.6-2.6v-13.8c.1-1.4-1.1-2.6-2.5-2.6zm1.5 16.4c0 .9-.7 1.6-1.6 1.6h-13.7c-.9 0-1.6-.7-1.6-1.6v-13.8c0-.9.7-1.6 1.6-1.6h13.7c.9 0 1.6.7 1.6 1.6zm-8.4-12.2c-2.9 0-5.3 2.4-5.3 5.3s2.4 5.3 5.3 5.3 5.3-2.4 5.3-5.3-2.4-5.3-5.3-5.3zm0 9.5c-2.3 0-4.2-1.9-4.2-4.2s1.9-4.2 4.2-4.2 4.2 1.9 4.2 4.2-1.9 4.2-4.2 4.2zm5.8-11.6c-.9 0-1.6.7-1.6 1.6s.7 1.6 1.6 1.6 1.6-.7 1.6-1.6-.7-1.6-1.6-1.6zm0 2.1c-.3 0-.5-.2-.5-.5s.2-.5.5-.5.5.2.5.5-.2.5-.5.5z"/></svg>