<svg enable-background="new 0 0 512 512" viewBox="0 0 512 512" xmlns="http://www.w3.org/2000/svg"><path d="m509.867 89.6c-2.133-2.133-4.267-4.267-8.533-4.267h-405.334l-10.667-55.466c0-4.267-6.4-8.533-10.667-8.533h-64c-6.399-.001-10.666 4.266-10.666 10.666s4.267 10.667 10.667 10.667h55.467l51.2 260.267c6.4 34.133 38.4 59.733 72.533 59.733h245.333c6.4 0 10.667-4.267 10.667-10.667s-4.267-10.667-10.667-10.667h-243.2c-17.067 0-34.133-8.533-42.667-23.467l311.467-42.666c4.267 0 8.533-4.267 8.533-8.533l42.667-170.667s0-4.267-2.133-6.4zm-59.734 166.4-311.467 40.533-38.4-192h386.134z"/><path d="m181.333 384c-29.866 0-53.333 23.467-53.333 53.333 0 29.867 23.467 53.333 53.333 53.333 29.867 0 53.333-23.467 53.333-53.333.001-29.866-23.466-53.333-53.333-53.333zm0 85.333c-17.067 0-32-14.934-32-32s14.933-32 32-32 32 14.934 32 32-14.933 32-32 32z"/><path d="m394.667 384c-29.867 0-53.333 23.467-53.333 53.333 0 29.867 23.467 53.333 53.333 53.333 29.867 0 53.333-23.467 53.333-53.333s-23.467-53.333-53.333-53.333zm0 85.333c-17.067 0-32-14.934-32-32s14.933-32 32-32 32 14.934 32 32-14.934 32-32 32z"/></svg>