<?xml version="1.0" encoding="utf-8"?>
<!-- Generator: Adobe Illustrator 23.1.1, SVG Export Plug-In . SVG Version: 6.00 Build 0)  -->
<svg version="1.1" id="koikko_x5F_logo" xmlns="http://www.w3.org/2000/svg" xmlns:xlink="http://www.w3.org/1999/xlink" x="0px"
	 y="0px" viewBox="0 0 248.671 138.951" style="enable-background:new 0 0 248.671 138.951;" xml:space="preserve">
<g id="koikko_x5F_mark">
	<path id="koikko_x5F_mark1" d="M43.637,45.757c-1.041,0.163-2.111,0.224-3.117,0.509c-2.519,0.714-3.179,0.292-3.255-2.259
		c-0.047-1.577-0.312-1.775-1.674-1.167c-0.732,0.327-1.405,0.795-2.152,1.073c-0.53,0.197-1.24,0.397-1.676,0.189
		c-0.299-0.143-0.461-1.03-0.347-1.504c0.486-2.009,1.104-3.986,1.658-5.978c0.119-0.429,0.174-0.876,0.258-1.314
		c-0.553-0.09-1.181-0.396-1.645-0.233c-1.997,0.704-3.918,1.628-5.919,2.32c-5.384,1.862-10.797,3.638-16.192,5.468
		c-1.702,0.577-3.345,1.516-5.084,1.729c-1.187,0.145-2.676-0.432-3.677-1.166c-0.614-0.45-0.995-1.957-0.729-2.73
		c0.796-2.307,1.732-4.578,4.527-5.409c4.489-1.336,8.881-3.004,13.379-4.306c3.43-0.993,6.969-1.601,10.444-2.447
		c2.73-0.665,5.663-1.006,8.07-2.301c1.612-0.867,3.852-1.652,4.481-3.888c0.427-1.517,0.034-2.011-1.472-2.46
		c-1.576-0.47-3.212-0.9-4.633-1.687c-2.235-1.238-3.603-3.362-4.316-5.749c-0.219-0.731,0.398-1.838,0.88-2.621
		c0.551-0.896,1.37-1.629,2.086-2.421c0.851-0.94,1.751-1.298,3.12-0.89c1.9,0.567,3.96,1.424,5.819-0.088
		c0.651-0.529,1.059-1.375,1.518-2.113c0.206-0.331,0.204-0.788,0.4-1.128c1.065-1.85,4.974-3.528,7.118-3.127
		c0.987,0.185,2.057,0.098,2.976,0.44c2.947,1.096,4.159,3.843,5.547,6.328c0.592,1.06,0.849,2.353,1.045,3.575
		c0.226,1.411-0.542,2.354-1.798,3.011c-2.534,1.325-5.063,2.691-6.49,5.358c-0.823,1.538-1.595,3.104-2.496,4.863
		c1.373-0.237,2.671-0.489,3.978-0.681c4.905-0.721,9.798-1.567,14.726-2.07c2.435-0.248,4.969-0.064,7.398,0.312
		c3.401,0.527,4.835,3.859,2.633,6.614c-0.97,1.213-2.563,1.506-3.925,1.295c-3.914-0.605-7.551,0.188-11.156,1.572
		c-0.763,0.293-1.633,0.309-2.629,0.483c0.146-0.843,0.241-1.387,0.334-1.926c-1.273-0.33-10.111,4.759-11.167,6.64
		c0.992,0.108,1.828,0.24,2.668,0.282c1.459,0.073,2.976-0.145,4.37,0.183c2.452,0.577,3.04,2.793,1.476,4.871
		c-2.205,2.932-2.167,3.164-0.366,6.427c0.913,1.655,1.633,3.421,2.355,5.172c0.136,0.33-0.02,0.894-0.229,1.235
		c-1.006,1.645-2.33,2.839-4.398,2.975c-1.517,0.1-2.251,1.246-2.322,2.514c-0.166,2.952-0.176,5.921-0.082,8.878
		c0.121,3.778,0.733,7.568,0.53,11.321c-0.195,3.616-1.101,7.201-1.797,10.78c-0.957,4.925-2.018,9.83-3.013,14.748
		c-0.261,1.289-0.415,2.599-0.689,3.885c-0.057,0.266-0.431,0.464-0.658,0.694c-0.182-0.269-0.498-0.525-0.526-0.809
		c-0.347-3.446-0.637-6.899-0.973-10.346c-0.38-3.895-0.983-7.779-1.137-11.682c-0.173-4.376-0.06-8.774,0.142-13.152
		c0.114-2.471,0.779-4.912,0.974-7.384c0.21-2.65-0.395-2.866-2.869-1.953c-2.628,0.971-5.371,1.642-8.083,2.37
		c-1.955,0.525-3.001-0.91-3.967-2.175c-0.982-1.285-0.635-4.541,0.474-5.742c3.215-3.481,6.456-6.936,9.665-10.422
		c0.686-0.745,1.278-1.577,1.914-2.369C43.84,46.035,43.739,45.896,43.637,45.757z M41.475,37.118
		c1.474-1.343,2.811-2.575,4.165-3.787c0.566-0.507,1.202-0.939,1.738-1.473c0.217-0.216,0.25-0.615,0.367-0.931
		c-0.4-0.12-0.855-0.427-1.19-0.327c-1.204,0.356-2.382,0.814-3.535,1.313c-0.307,0.133-0.632,0.515-0.707,0.839
		C42.003,34.095,41.784,35.46,41.475,37.118z"/>
	<path id="koikko_x5F_mark2" d="M132.509,48.591c0.38-0.498,0.668-1.124,1.156-1.472c2.958-2.106,5.966-4.143,8.946-6.219
		c0.417-0.29,0.848-0.612,1.143-1.014c0.394-0.539,0.661-1.171,0.983-1.764c-0.72-0.302-1.492-0.944-2.15-0.843
		c-1.887,0.29-3.78,0.734-5.575,1.383c-3.849,1.391-7.609,3.031-11.461,4.414c-3.455,1.24-6.929,2.526-10.5,3.308
		c-2.457,0.538-4.558-1.021-6.182-2.814c-0.934-1.031-1.557-2.351-2.286-3.561c-0.975-1.617-1.591-3.304-0.416-5.08
		c1.145-1.73,2.916-1.817,4.771-1.752c1.966,0.068,3.963,0.215,5.9-0.033c4.665-0.598,9.359-1.163,13.938-2.197
		c5.044-1.139,10.093-1.918,15.245-1.742c3.441,0.118,6.84,0.585,9.769,2.758c2.04,1.513,2.443,3.611,0.534,5.223
		c-1.999,1.688-4.177,3.203-6.423,4.549c-2.617,1.568-5.327,3.021-8.119,4.246c-2.845,1.247-5.839,2.156-8.767,3.213
		C132.847,48.994,132.678,48.793,132.509,48.591z"/>
	<path id="koikko_x5F_mark3" d="M191.698,30.162c-0.846-4.675,2.707-6.304,5.681-8.287c0.269-0.18,1.108,0.027,1.325,0.32
		c0.734,0.99,1.525,2.029,1.89,3.179c0.512,1.614,0.73,3.335,0.949,5.026c0.297,2.295-2.171,4.841-4.805,4.933
		c-1.035,0.036-2.176,0.013-3.101-0.379C191.484,34.041,191.785,31.948,191.698,30.162z M246.234,62.838
		c-2.737-1.169-5.6-2.039-8.401-3.06c-2.087-0.761-4.287-1.321-5.657-3.344c-0.18-0.265-0.828-0.38-1.196-0.294
		c-0.268,0.063-0.666,0.632-0.603,0.869c0.278,1.054,0.581,2.134,1.099,3.082c0.73,1.334,1.732,2.518,2.485,3.842
		c1.184,2.083,0.308,3.418-2.122,3.603c-2.023,0.154-4.029,0.513-6.044,0.769c-1.51,0.025-4.508,0.019-9.075-0.183
		c-1.302-0.425-1.553-1.238-0.847-2.432c0.955-1.616,1.946-3.238,2.656-4.966c1.511-3.677,2.877-7.415,4.247-11.148
		c0.607-1.655,0.106-2.838-1.443-3.903c-0.44-0.302-0.845-0.654-1.26-0.98c1.301-1.807,5.162-4.337,7.401-4.711
		c1.505-0.251,2.807-1.76,2.847-3.094c0.042-1.39-0.68-2.358-2.562-2.639c-2.312-0.345-4.801-0.557-6.829,0.837
		c-2.679,1.841-5.866,1.73-8.756,2.708c-0.338,0.114-0.816-0.183-1.539-0.369c0.899-0.73,1.497-1.392,2.238-1.789
		c5.989-3.203,11.989-6.387,18.024-9.502c1.561-0.806,2.936-2.322,2.866-3.613c-0.075-1.379-1.289-2.677-3.259-2.888
		c-1.88-0.201-3.818-0.073-5.711,0.115c-1.423,0.141-2.441,1.008-2.84,2.484c-0.086,0.319-0.308,0.668-0.571,0.86
		c-1.896,1.387-3.818,2.737-5.978,4.274c0.139-0.88,0.189-1.613,0.379-2.307c0.253-0.928,0.811-1.81,0.893-2.742
		c0.264-2.993-0.256-5.725-2.05-8.362c-2.083-3.062-5.002-3.79-8.251-3.887c-0.966-0.029-1.956,0.759-2.935,1.172
		c0.636,0.703,1.273,1.406,1.908,2.11c0.034,0.038,0.061,0.083,0.107,0.147c-0.372,0.789-0.872,1.556-1.105,2.398
		c-0.669,2.419-1.357,4.845-1.803,7.311c-0.742,4.104-0.624,8.16,1.211,12.042c0.222,0.47,0.254,1.27-0.005,1.672
		c-0.411,0.637-1.105,1.12-1.745,1.576c-3.575,2.548-7.198,5.029-10.745,7.615c-2.005,1.462-3.145,3.522-3.283,6.015
		c-0.109,1.982,1.059,2.881,2.879,2.118c1.8-0.755,3.478-1.803,5.206-2.729c4.025-2.156,8.04-4.333,12.086-6.449
		c0.422-0.22,1.029-0.086,1.55-0.116c-3.199,3.511-6.507,6.715-9.924,9.798c-3.485,3.145-7.026,6.232-10.64,9.228
		c-2.529,2.096-5.265,3.942-7.827,6c-2.15,1.727-4.691,3.227-4.208,6.708c0.239,1.722,1.705,3.467,3.394,3.129
		c1.575-0.315,3.264-0.901,4.501-1.877c2.348-1.853,4.409-4.069,6.587-6.136c2.009-1.906,4.075-3.757,6.01-5.735
		c4.958-5.067,9.847-10.2,14.8-15.271c0.315-0.323,0.94-0.344,1.42-0.506c0.134,0.462,0.449,0.96,0.367,1.379
		c-0.244,1.249-0.591,2.485-0.995,3.693c-1.175,3.513-2.335,7.034-3.622,10.506c-1.11,2.996,1.154,8.259,3.669,9.56
		c2.089,1.081,4.291,1.282,6.46,1.3c3.615,0.03,7.266-0.118,10.843-0.617c4.087-0.57,8.175-1.378,12.138-2.517
		c2.717-0.781,4.729-2.792,5.636-5.641C249.123,65.397,248.621,63.858,246.234,62.838z M225.8,68.306
		C227.322,68.221,227.342,68.28,225.8,68.306L225.8,68.306z"/>
</g>
<g id="koikko_x5F_en">
	<path id="koikko_x5F_k" d="M66.601,137.938c0,0.544-0.667,0.914-1.592,0.914c-1,0-1.667-0.37-1.667-0.914v-19.884
		c0-0.544,0.704-0.914,1.667-0.914c0.926,0,1.592,0.395,1.592,0.914v12.4l10.667-6.373c0.481-0.272,0.926-0.42,1.333-0.42
		c0.741,0,1.482,0.494,1.482,1.013c0,0.271-0.222,0.543-0.592,0.766l-7.037,4.125l8.296,7.361c0.296,0.272,0.481,0.569,0.481,0.815
		c0,0.593-0.852,1.111-1.815,1.111c-0.556,0-1.074-0.198-1.444-0.568l-7.815-7.46l-3.556,2.099V137.938z"/>
	<path id="koikko_x5F_o1" d="M106.751,131.269c0,4.496-4.482,7.683-10.815,7.683c-6.333,0-10.815-3.187-10.815-7.707
		c0-4.422,4.556-7.608,10.889-7.608C102.196,123.636,106.751,126.872,106.751,131.269z M88.529,131.269
		c0,3.408,3.037,5.78,7.445,5.78c4.296,0,7.37-2.395,7.37-5.78c0-3.334-3.148-5.78-7.445-5.78
		C91.677,125.489,88.529,127.959,88.529,131.269z"/>
	<path id="koikko_x5F_i" d="M117.494,119.808c0,0.89-1.074,1.606-2.407,1.606s-2.407-0.716-2.407-1.606
		c0-0.889,1.074-1.605,2.407-1.605C116.383,118.202,117.494,118.943,117.494,119.808z M116.716,137.913
		c0,0.544-0.704,0.939-1.63,0.939s-1.63-0.395-1.63-0.939v-13.289c0-0.519,0.704-0.938,1.63-0.938s1.63,0.42,1.63,0.938V137.913z"/>
	<path id="koikko_x5F_k1" d="M128.643,137.938c0,0.544-0.667,0.914-1.593,0.914c-1,0-1.666-0.37-1.666-0.914v-19.884
		c0-0.544,0.703-0.914,1.666-0.914c0.926,0,1.593,0.395,1.593,0.914v12.4l10.666-6.373c0.481-0.272,0.927-0.42,1.334-0.42
		c0.74,0,1.482,0.494,1.482,1.013c0,0.271-0.223,0.543-0.593,0.766l-7.037,4.125l8.296,7.361c0.297,0.272,0.481,0.569,0.481,0.815
		c0,0.593-0.852,1.111-1.815,1.111c-0.556,0-1.074-0.198-1.444-0.568l-7.815-7.46l-3.555,2.099V137.938z"/>
	<path id="koikko_x5F_k2" d="M152.349,137.938c0,0.544-0.666,0.914-1.592,0.914c-1,0-1.667-0.37-1.667-0.914v-19.884
		c0-0.544,0.704-0.914,1.667-0.914c0.926,0,1.592,0.395,1.592,0.914v12.4l10.667-6.373c0.481-0.272,0.926-0.42,1.333-0.42
		c0.741,0,1.482,0.494,1.482,1.013c0,0.271-0.223,0.543-0.593,0.766l-7.037,4.125l8.297,7.361c0.296,0.272,0.482,0.569,0.482,0.815
		c0,0.593-0.853,1.111-1.816,1.111c-0.555,0-1.073-0.198-1.444-0.568l-7.814-7.46l-3.556,2.099V137.938z"/>
	<path id="koikko_x5F_o2" d="M192.499,131.269c0,4.496-4.482,7.683-10.815,7.683c-6.334,0-10.816-3.187-10.816-7.707
		c0-4.422,4.556-7.608,10.889-7.608C187.943,123.636,192.499,126.872,192.499,131.269z M174.277,131.269
		c0,3.408,3.037,5.78,7.445,5.78c4.295,0,7.37-2.395,7.37-5.78c0-3.334-3.148-5.78-7.444-5.78
		C177.425,125.489,174.277,127.959,174.277,131.269z"/>
</g>
</svg>
