<svg xmlns="http://www.w3.org/2000/svg" width="283.75" height="38.13" viewBox="0 0 283.75 38.13">
  <defs>
    <style>
      .cls-1 {
        fill-rule: evenodd;
      }
    </style>
  </defs>
  <path id="text-method" class="cls-1" d="M214.226,3164.93a26.273,26.273,0,0,0,3.109-3.78c0.84,0.16,1.512-.05,1.638-0.63,0.126-.68-1.764-1.85-3.193-2.4a0.641,0.641,0,0,0-.966.42,51.274,51.274,0,0,1-1.806,5.63C212.588,3165.22,213.26,3165.73,214.226,3164.93Zm-11.552,2.6a0.78,0.78,0,0,0-.924.84,0.764,0.764,0,0,0,.924.84h5.041a32.5,32.5,0,0,1-5.881,10.38c-0.882,1.01-.042,1.93,1.092,1.05a28.936,28.936,0,0,0,5.755-6.51c-0.042,3.53-.126,7.47-0.126,8.27a1.037,1.037,0,0,0,1.092,1.22c1.134,0,1.681-.42,1.681-1.39,0-1.34-.084-10.41-0.084-13.02h6.511c1.05,0,1.806-.25,1.806-0.88,0-.88-2.394-3.24-3.151-3.28-0.546.04-1.47,1.31-2.268,2.48h-2.9c0-2.86.042-8.82,0.126-10.67,1.26-.17,2.058-0.54,2.058-1.17,0-.97-2.563-1.22-4.453-1.22a0.5,0.5,0,0,0-.546.59c0.336,2.68.336,9.32,0.336,12.47h-6.091Zm11.552,4.5c-1.092-.34-1.512.46-1.008,1.26a18.68,18.68,0,0,1,1.512,2.52c0.63,1.22,1.008,2.22,2.059,2.22a1.662,1.662,0,0,0,1.764-1.8C218.553,3174.34,216.452,3172.87,214.226,3172.03Zm-11.132-12.14a20.232,20.232,0,0,1,.84,2.56c0.294,1.3.378,2.35,1.345,2.6a1.628,1.628,0,0,0,2.058-1.34c0.378-1.64-1.092-3.4-2.941-4.79C203.43,3158.25,202.758,3158.96,203.094,3159.89Zm-18.987,4.62c0.756,1.55,1.05,2.73,2.142,2.73a1.745,1.745,0,0,0,1.848-1.85,3.848,3.848,0,0,0-.672-2.06,69.111,69.111,0,0,0,4.747-7.31c0.924,0.04,1.764,0,1.849-.5,0.126-.84-1.975-2.27-3.949-2.9a0.541,0.541,0,0,0-.756.42,36.9,36.9,0,0,1-3.361,8.74,11.521,11.521,0,0,0-2.52-1.56c-1.135-.42-1.639.42-1.093,1.26A21.016,21.016,0,0,1,184.107,3164.51Zm0.462,12.77a0.572,0.572,0,0,0-.8.54,25.594,25.594,0,0,1-2.395,9.75c-0.5,1.01.462,1.51,1.26,0.71a17.922,17.922,0,0,0,3.781-7.98c1.26,0.04,1.89-.17,1.89-0.8C188.307,3178.75,185.955,3177.61,184.569,3177.28Zm9.872,0.04c-0.883-.63-1.513,0-1.219.84,0.252,0.88.5,1.81,0.672,2.69,0.169,1.26.295,2.27,1.261,2.56a1.641,1.641,0,0,0,2.226-1.22C197.927,3180.43,196.289,3178.54,194.441,3177.32Zm-5.5,3.11c0,4.45-.126,7.35-0.126,8.69,0,0.8.252,1.31,1.05,1.31,1.3,0,1.848-.63,1.848-1.52,0-1.22-.084-4.2-0.084-8.48v-6.14c0.714-.16,1.05-0.37,1.05-0.75a0.468,0.468,0,0,0-.126-0.3,10.834,10.834,0,0,0,1.723-.37c0.126,0.96.252,1.68,1.008,1.89a1.582,1.582,0,0,0,2.1-1.18c0.546-1.72-.8-3.74-2.646-5.38-0.883-.71-1.639-0.04-1.345.93a20.98,20.98,0,0,1,.588,2.1c-1.47.04-3.108,0.12-5,.12,2.142-2.56,4.116-5.71,5.545-7.81,0.924,0.08,2.016,0,2.1-.63,0.084-.84-1.764-2.06-3.571-2.69a0.574,0.574,0,0,0-.84.3,50.945,50.945,0,0,1-5.8,10.88c-1.386,0-2.856,0-4.411-.05a0.42,0.42,0,0,0-.5.51c0,2.22.336,3.86,1.219,3.99,0.672,0.08,1.134-.72,1.428-1.68,1.512-.09,3.15-0.21,4.789-0.38v6.64Zm12.056,4.7c0-4.41-.084-11.51-0.084-13.48,0-1.72.042-11.81,0.126-14.62,1.26-.25,2.1-0.67,2.1-1.34,0-1.01-2.268-1.26-4.747-1.26a0.469,0.469,0,0,0-.546.58c0.63,3.99.5,15.46,0.5,17.35,0,2.77-.378,14.66-0.378,16.43a1.107,1.107,0,0,0,1.218,1.22c1.3,0,1.849-.51,1.849-1.43v-1.77h17.727c1.176,0,2.058-.33,2.058-0.96,0-1.01-2.73-3.62-3.612-3.62-0.63,0-1.765,1.52-2.647,2.9H200.994Zm48.09-6v-0.63c-0.042-1.52-.084-2.99-0.21-4.42h4.243c0.84,0,1.554-.21,1.554-0.79,0-.8-2.058-2.99-2.772-2.99-0.463,0-1.261,1.05-1.933,2.1h-1.3a27.991,27.991,0,0,0-.84-4.32h5.209c0.588,0,1.344-.17,1.344-0.8-0.042-.71-1.848-2.9-2.562-2.9-0.421,0-1.135.97-1.807,2.02H247.32a25.737,25.737,0,0,0-1.008-2.48,69.58,69.58,0,0,0,10-6.6c1.345,0,2.353-.42,2.353-1.13,0-1.01-2.395-3.19-3.445-3.19a5.071,5.071,0,0,0-2.268,1.64H233.835a0.78,0.78,0,0,0-.924.84,0.764,0.764,0,0,0,.924.84h18.652a42.6,42.6,0,0,1-6.932,6.13,24.809,24.809,0,0,0-2.268-3.49c-1.05-1.26-2.52-.33-1.554,1.18a29,29,0,0,1,2.856,6.26h-3.444a1.018,1.018,0,0,0-.756.25c-0.631-1.09-2.521-2.65-3.025-2.65-0.462,0-1.386,1.01-2.1,1.85h-6.3a0.78,0.78,0,0,0-.925.84,0.764,0.764,0,0,0,.925.84h6.721c-0.672,7.23-3.151,13.4-7.94,18.11-1.218,1.13-.252,2.22,1.092,1.26,6.218-4.54,8.528-11.56,10.04-18.53a4.5,4.5,0,0,0,1.471-.63,0.816,0.816,0,0,0,.8.34h3.948a32.784,32.784,0,0,1,.8,4.32h-5.714a0.78,0.78,0,0,0-.924.84,0.76,0.76,0,0,0,.924.84h5.882c0.084,1.22.126,2.48,0.168,3.74v1.31h-7.436a0.78,0.78,0,0,0-.924.84,0.764,0.764,0,0,0,.924.84h7.352c-0.379,3.78-1.513,5.88-2.9,5.92a24.477,24.477,0,0,1-3.193-.21c-1.26-.13-1.428,1.09-0.252,1.51a3.137,3.137,0,0,1,1.891,1.39,1.832,1.832,0,0,0,1.764,1.01c2.647-.05,5.167-3.16,5.587-9.62h5.923c0.924,0,1.638-.21,1.638-0.84-0.042-.8-2.184-3.07-2.94-3.07-0.462,0-1.3,1.13-2.016,2.23h-2.563Zm17.685,4.24c-5.125-3.03-7.729-7.23-9.2-12.31a39.788,39.788,0,0,0,6.385-4.33c1.218,0.38,1.974.38,2.1-.25,0.21-.75-1.722-2.56-2.94-3.32a0.69,0.69,0,0,0-.925.34,34.984,34.984,0,0,1-5.125,5.71c-0.546-2.43-.924-5.04-1.26-7.77a0.8,0.8,0,0,0-1.6.04c0.336,10.5,2.646,18.82,8.527,24.45a1.346,1.346,0,0,0,2.1-.04,3.379,3.379,0,0,1,1.722-1.09C267.609,3184.46,267.693,3184,266.769,3183.37Zm22.7-20.44a23.21,23.21,0,0,1,3.24,1.98,0.864,0.864,0,0,1-.036,1.48,9.3,9.3,0,0,1-2.7,1.36,9.43,9.43,0,0,1-1.727-4.14C288.246,3162.79,288.606,3162.5,289.469,3162.93Zm1.836,6.62a15.923,15.923,0,0,0,4.176-2.12,2.715,2.715,0,0,0,1.368-1.87c0-.79-0.54-1.15-1.62-1.55a28.474,28.474,0,0,1-4.1-1.87c-1.152-.65-2.088-1.33-3.167-1.33a2.1,2.1,0,0,0-2.088,2.3c0,1.58.612,3.13,2.016,5.22a20.109,20.109,0,0,1-3.888.36c-3.815,0-6.047-2.52-7.7-3.71-0.5-.36-1.08-0.07-0.9.65a7.342,7.342,0,0,0,7.343,5.4,25.281,25.281,0,0,0,6.515-.83c2.052,2.77,4.032,5.69,4.032,7.02,0,0.36-.144.61-0.9,0.5a37.8,37.8,0,0,0-6.839-.75c-4.643,0-8.459,2.88-8.459,6.08,0,3.82,4.859,5,8.783,5,4.715,0,5.831-1.4,5.831-2.23,0-.68-0.864-0.82-2.232-0.82a43.181,43.181,0,0,1-6.551.07c-2.087-.25-3.347-0.97-3.347-2.56,0-1.98,2.627-4.03,5.687-4.03a13.942,13.942,0,0,1,6.983,1.87,5.906,5.906,0,0,0,2.268.87c0.936,0,1.836-.65,1.836-2.2a8.038,8.038,0,0,0-1.332-3.92C294.041,3173.48,292.817,3171.71,291.305,3169.55Zm25.526,7.09c0.323-.5.827-1.26,1.331-2.01a40.158,40.158,0,0,1-.756,7.88c-0.288,1.12-.719.94-1.331,0.29-0.432-.47-1.044-1.22-1.728-2.12Zm-6.3-2.44c0-1.84,5.364-3.46,6.3-3.71,0.755-.22,1.007.11,0.791,0.72-0.683,1.91-2.663,4.79-4.643,7.49C311.683,3176.75,310.531,3174.81,310.531,3174.2Zm2.952,7.92c0.432,0.72.792,1.33,1.008,1.65a7.771,7.771,0,0,1,1.44,2.67c0.252,1.07.576,1.83,1.259,1.83,0.936,0,1.512-.68,1.836-1.91,0.54-2.01.684-8.17,0.828-13.82,2.3-2.59,5.579-5.36,8.459-5.36a2.2,2.2,0,0,1,2.2,2.48c0,3.46-1.98,7.81-1.98,11.09,0,2.52,1.26,5.51,4.787,5.51a8.789,8.789,0,0,0,6.336-3.14c0.4-.5.036-1.08-0.612-0.79a13.182,13.182,0,0,1-5.472,1.3c-1.583,0-2.375-1.01-2.375-3.13,0.036-3.1,1.8-7.17,1.8-10.66,0-2.3-1.3-4.21-4.1-4.21-2.952,0-5.579,1.62-8.6,4.1a1.865,1.865,0,0,0-.324-0.57c0.036-2.41.108-5.26,0.108-6.48,0-1.95-.684-2.38-3.383-2.38-1.26,0-2.088.54-2.088,1.01s0.792,0.72,1.62,1.04a1.8,1.8,0,0,1,1.4,1.7c0.144,0.82.288,2.37,0.4,4.1a2.161,2.161,0,0,0-.684-0.07,15.6,15.6,0,0,0-7.163,3.02,3.765,3.765,0,0,0-1.655,2.81,3.479,3.479,0,0,0,1.367,2.77,19.631,19.631,0,0,1,2.232,3.13c-1.26,1.69-2.448,3.21-3.2,4.25a4.175,4.175,0,0,0-.9,2.23,1.269,1.269,0,0,0,1.115,1.37,2.067,2.067,0,0,0,1.692-1.26Zm45.539,3.49c-1.692,0-3.276-.61-3.24-1.84a1.482,1.482,0,0,1,1.692-1.47c1.476,0,2.52,1.15,2.664,3.27A10.406,10.406,0,0,1,359.022,3185.61Zm-0.972-11.77c1.944-1.7,3.959-3.35,6.443-5.22,1.008-.79,2.7-1.73,2.7-2.77,0-1.19-1.98-3.14-3.852-3.14a8.192,8.192,0,0,0-2.735.65c-2.844.94-6.228,2.16-7.523,2.16a5.434,5.434,0,0,1-2.628-1.44c-0.612-.47-1.044-0.25-1.044.61,0,1.73,1.872,3.89,3.636,3.89,1.871,0,7.739-4.07,9.826-4.07,0.576,0,.864.4,0.432,1.16-0.972,1.76-3.671,4.32-5.8,6.19-1.944,1.65-5.471,4.24-7.019,5.72-1.08,1.08-1.368,2.09-.972,2.84,0.4,0.83,1.332.8,2.268,0,0.936-.82,2.015-2.08,3.923-3.7a7.366,7.366,0,0,1,5.04-1.73,4.887,4.887,0,0,1,5.219,4.97,4.979,4.979,0,0,1-3.2,5.04,4.98,4.98,0,0,0-5.039-4.18,3.3,3.3,0,0,0-3.6,3.28c0,2.48,2.34,3.74,5.4,3.74,5.039,0,9.143-2.66,9.143-7.38C368.669,3175.6,364.025,3172.65,358.05,3173.84Zm35.033-9.84c1.05,0,1.848-.29,1.848-0.88,0-.92-2.478-3.32-3.277-3.32-0.546,0-1.512,1.3-2.31,2.52h-0.8c0-2.69.042-5.16,0.084-7.14,1.344-.38,2.268-0.75,2.268-1.43,0-.75-1.6-1.34-4.746-1.34-0.715,0-.883.21-0.8,0.84a89.644,89.644,0,0,1,.42,9.07h-5.545a0.78,0.78,0,0,0-.924.84,0.764,0.764,0,0,0,.924.84h5.587c0.042,3.24.042,6.26,0.042,7.82-1.932.71-3.99,1.42-6.175,2.1a0.567,0.567,0,0,0-.5.63c0.21,2.18.756,3.61,1.639,3.69,0.714,0.05,1.134-1.05,1.344-2.14,1.176-.55,2.436-1.09,3.7-1.68,0,3.95.042,8.15-.084,10.71-0.084,1.35-.546,1.6-1.3,1.64-0.63,0-1.806-.08-2.52-0.13-0.84,0-.966.89-0.042,1.31,2.688,1.05,2.016,2.39,3.528,2.39,2.059,0,3.151-1.64,3.151-3.78,0-4.12,0-8.78-.042-13.4a40.185,40.185,0,0,0,5.545-3.11c1.218-.96.672-1.93-0.756-1.34-1.512.67-3.109,1.38-4.789,2.06V3164h4.537Zm17.433,7.48a25.274,25.274,0,0,1-5.461,9.07,23.839,23.839,0,0,1-5.251-9.07h10.712Zm-4.117-1.68v-7.23h9.242c1.386,0,2.184-.33,2.184-0.96,0-1.01-2.9-3.53-3.739-3.53-0.63,0-1.722,1.51-2.6,2.81H406.4v-5.29c1.3-.29,2.184-0.63,2.184-1.47,0-1.09-3.99-1.22-4.7-1.22a0.515,0.515,0,0,0-.588.59c0.168,1.43.294,4.29,0.336,7.39h-8.066a0.78,0.78,0,0,0-.924.84,0.76,0.76,0,0,0,.924.84h8.108v7.23h-8.36a0.78,0.78,0,0,0-.924.84,0.764,0.764,0,0,0,.924.84h2.731a30.32,30.32,0,0,0,5.041,10.88c-3.235,2.69-7.436,4.66-12.981,6.26-1.3.29-.924,1.76,0.294,1.55,6.007-1.17,10.712-3.06,14.409-5.79a19.959,19.959,0,0,0,8.989,5.42c1.177,0.33,1.471.12,2.017-.63a3.222,3.222,0,0,1,1.638-1.18c0.84-.3,1.134-1.01-0.168-1.26a21.913,21.913,0,0,1-10.124-4.24,27.99,27.99,0,0,0,6.637-10c1.093-.25,1.681-0.59,1.681-1.09,0-.97-2.521-3.15-3.151-3.15a4.492,4.492,0,0,0-1.848,1.55H406.4Zm56.072-11.34c0.924,0,1.848-.34,1.848-0.97,0-.92-2.52-3.49-3.36-3.49-0.589,0-1.639,1.43-2.479,2.78h-4.831a0.78,0.78,0,0,0-.924.84,0.764,0.764,0,0,0,.924.84h8.822Zm-14.787-2.44a20.25,20.25,0,0,1,1.176,2.02c0.463,0.92.883,1.68,1.807,1.64a1.482,1.482,0,0,0,1.386-1.77c-0.042-1.26-1.47-2.48-3.529-2.98A0.7,0.7,0,0,0,447.684,3156.02Zm-21.088,7.23a34.9,34.9,0,0,0,8.78-7.56c1.218,0.25,1.974.12,2.058-.55,0.084-.8-2.226-2.23-3.57-2.77a0.66,0.66,0,0,0-.84.46,30.178,30.178,0,0,1-7.394,9.28C424.748,3162.99,425.5,3163.88,426.6,3163.25Zm6.512,15.92c0-1.22,0-6.6.126-8.28,0.84-.12,1.554-0.38,1.554-0.92,0-.46-0.882-1.05-1.806-1.47,0.924-1.39,1.68-2.65,2.268-3.7,1.218,0.17,1.974.04,2.016-.63,0.042-.8-2.394-2.18-3.7-2.6a0.582,0.582,0,0,0-.8.46,40.79,40.79,0,0,1-7.982,13.36c-0.756.96,0.084,1.76,1.092,1.05a27.561,27.561,0,0,0,4.369-4.25c0.126,5.38-.084,14.75-0.084,17.1a1.034,1.034,0,0,0,1.134,1.18c1.261,0,1.849-.42,1.849-1.35Zm5.713-10a0.59,0.59,0,0,0-.84.5,28.709,28.709,0,0,1-3.235,11.89c-0.5,1.01.5,1.47,1.3,0.72,3.151-3.32,4.159-7.4,4.873-10.09,1.26,0,1.932-.21,1.932-0.88C442.853,3170.51,440.207,3169.42,438.821,3169.17Zm13.19-5.63c1.26,0,1.848-.21,1.848-0.8-0.042-.8-2.436-2.9-3.108-2.9-0.462,0-1.3,1.01-1.975,2.02H445.92c0.042-2.73.042-5.38,0.084-6.59,1.218-.26,1.974-0.72,1.974-1.35,0-1.01-2.352-1.22-4.789-1.22a0.472,0.472,0,0,0-.546.59,69.605,69.605,0,0,1,.546,8.57h-5.545a0.78,0.78,0,0,0-.924.84,0.764,0.764,0,0,0,.924.84h5.587c0.042,3.78,0,7.27,0,8.15,0,2.94-.42,15.58-0.42,17.43a1.162,1.162,0,0,0,1.3,1.26c1.386,0,1.974-.5,1.974-1.47,0-1.76-.168-15.12-0.168-18.02v-7.35h6.091Zm1.134,13.57c0.294-1.6-.588-5.04-4.327-7.77-0.756-.51-1.428.17-1.134,0.75a13.9,13.9,0,0,1,1.386,3.41,29.216,29.216,0,0,1,.673,3.57,1.554,1.554,0,0,0,1.3,1.55A1.7,1.7,0,0,0,453.145,3177.11Zm-1.3-10.8a0.78,0.78,0,0,0-.924.84,0.76,0.76,0,0,0,.924.84h5.167c0.126,1.94.252,7.31,0.252,10.38,0.042,2.69,0,5.42-.084,7.31a1.2,1.2,0,0,1-1.428,1.34,25.022,25.022,0,0,1-2.605-.21c-0.84-.04-1.05,1.05-0.042,1.43,2.731,1.01,2.521,2.19,3.823,2.19a3.068,3.068,0,0,0,3.15-3.24c0-5.92-.042-13.82.042-18.57a2.557,2.557,0,0,0,1.429-.63h1.512c0.966,0,1.932-.33,1.932-0.96,0-.97-2.6-3.62-3.444-3.62-0.63,0-1.723,1.52-2.605,2.9h-7.1Z" transform="translate(-181.25 -3152.34)"/>
</svg>
