<svg xmlns="http://www.w3.org/2000/svg" width="23.969" height="174.15" viewBox="0 0 23.969 174.15">
  <defs>
    <style>
      .cls-1 {
        fill-rule: evenodd;
      }
    </style>
  </defs>
  <path id="text-hello01" class="cls-1" d="M929.091,3032.59a1.073,1.073,0,0,0,.286-0.15,16.652,16.652,0,0,0,2.574-2.71c0.78,0.05,1.2-.1,1.2-0.49-0.026-.45-1.56-1.3-2.47-1.56a0.363,0.363,0,0,0-.468.33,16.676,16.676,0,0,1-1.664,3.88,0.468,0.468,0,0,0,.13.7H915.311a0.483,0.483,0,0,0-.572.52,0.471,0.471,0,0,0,.572.52h10.348v3.36h-8.71a0.483,0.483,0,0,0-.572.52,0.475,0.475,0,0,0,.572.52h8.71c-0.026,2.02-.078,3.43-0.078,4.16a0.665,0.665,0,0,0,.728.78,1.039,1.039,0,0,0,1.274-.94c0-.65-0.052-2.08-0.078-4h8.19c1.014,0,1.456-.24,1.456-0.6,0-.65-1.924-2.21-2.444-2.21-0.416,0-1.118.96-1.69,1.77h-5.512v-2.47a0.826,0.826,0,0,0,.858-0.6,0.361,0.361,0,0,0-.156-0.29h8.658c1.066,0,1.508-.23,1.508-0.62,0-.65-1.976-2.26-2.522-2.26-0.416,0-1.17,1.01-1.742,1.84h-5.018Zm-6.266-.41a1.247,1.247,0,0,0,1.482-1.2c0.13-1.3-1.248-2.24-2.626-2.81-0.78-.34-1.144.23-0.832,0.83a14.656,14.656,0,0,1,.754,1.59C921.889,3031.37,922.1,3032.1,922.825,3032.18Zm4.732-5.62v-2.99h7.072c0.988,0,1.456-.24,1.456-0.6-0.026-.62-1.9-2.21-2.418-2.21-0.39,0-1.118.96-1.664,1.77h-4.446v-1.41c0.806-.18,1.378-0.39,1.378-0.96,0-.67-2.548-0.75-2.99-0.75a0.317,0.317,0,0,0-.364.36c0.078,0.63.13,1.61,0.156,2.76h-7.982a0.483,0.483,0,0,0-.572.52,0.475,0.475,0,0,0,.572.52h7.982c0.026,1.04.026,2.08,0,2.99H915.259a0.483,0.483,0,0,0-.572.52,0.475,0.475,0,0,0,.572.52H937c1.066,0,1.508-.26,1.508-0.63,0-.67-1.976-2.28-2.522-2.28-0.416,0-1.17,1.01-1.742,1.87h-6.682Zm-11.882,36.24a0.483,0.483,0,0,0-.572.52,0.471,0.471,0,0,0,.572.52h20.878c1.326,0,1.82-.23,1.82-0.62,0-.7-2.158-2.58-2.886-2.58-0.546,0-1.4,1.18-2.08,2.16H915.675Zm14.872,29.62a18.148,18.148,0,0,0,3.848-3.98c0.78,0.05,1.248-.08,1.248-0.47,0-.49-1.69-1.4-2.626-1.66-0.286-.08-0.39.07-0.468,0.33a17.074,17.074,0,0,1-2.782,5.18C929.377,3092.44,929.923,3092.88,930.547,3092.42Zm-11.206-2.37c0.494,1.14.728,2,1.534,2.05a1.22,1.22,0,0,0,1.352-1.3c0.078-1.61-1.664-3.19-3.458-3.92-0.728-.29-1.066.23-0.754,0.8A20.41,20.41,0,0,1,919.341,3090.05Zm17.6,5.51c1.066,0,1.508-.26,1.508-0.62,0-.68-1.976-2.29-2.522-2.29-0.416,0-1.2,1.01-1.768,1.87h-6.786v-8.68c0.806-.18,1.378-0.39,1.378-0.96,0-.68-2.626-0.76-3.068-0.76a0.32,0.32,0,0,0-.364.37c0.234,1.74.286,6.7,0.234,10.03H915.311a0.483,0.483,0,0,0-.572.52,0.471,0.471,0,0,0,.572.52h21.632Zm-13.78.57a0.365,0.365,0,0,0-.416.45c0.286,5.74-2.314,8.37-7.488,9.96-0.884.28-.728,1.09,0.208,0.91,6.084-1.15,9.1-4.06,9.256-9.78,0.91-.16,1.2-0.42,1.2-0.76C925.919,3096.39,924.021,3096.13,923.163,3096.13Zm15.028,6.48c0-.63-0.676-0.7-0.832-0.08a10.628,10.628,0,0,1-.65,1.95c-0.364.7-1.17,0.96-3.744,0.96-2.86,0-2.938-.2-2.964-1.25-0.026-1.4,0-4.6.078-6.65,0.728-.13,1.066-0.31,1.066-0.68,0-.57-1.742-0.75-2.548-0.75-0.364,0-.468.1-0.442,0.47,0.182,2.57.052,7.15,0.052,7.95,0,2.29.494,2.66,4.81,2.66,4.368,0,5.616-.73,5.616-1.43C938.633,3104.95,938.165,3105.31,938.191,3102.61Zm-11.648,20.33a7.5,7.5,0,0,0-.988.08c0.52-1.41,1.04-2.86,1.274-3.82,0.312-1.3-1.4-2.08-2.73-2.08-0.754,0-1.4.23-1.4,0.57,0,0.21.13,0.39,1.144,0.91a1.3,1.3,0,0,1,.91,1.14,12.25,12.25,0,0,1-.936,3.59,33.134,33.134,0,0,1-4.6.73,3.561,3.561,0,0,1-2.236-1.04c-0.494-.37-0.832-0.26-0.832.34a2.533,2.533,0,0,0,2.21,2.62,28.384,28.384,0,0,0,4.862-1.11,43.55,43.55,0,0,1-5.694,8.81,2.846,2.846,0,0,0-.962,1.77,0.878,0.878,0,0,0,.858,1.01,1.859,1.859,0,0,0,1.456-.93c1.586-1.9,4.706-7.7,6.136-11.16a7.647,7.647,0,0,1,1.508-.21c1.768,0,2.028,1.59,2.028,3.23,0,2.39-1.17,5.59-2.99,5.59-1.092,0-2.106-1.04-2.7-1.51-0.494-.39-0.754,0-0.6.39,0.6,1.51,2.106,3.3,3.51,3.3,2.782,0,4.42-4.18,4.42-7.17C930.183,3124.5,929.143,3122.94,926.543,3122.94Zm6.76,0.55c-0.6-.08-0.91.46-0.338,0.78a5.421,5.421,0,0,1,2.964,4.96c0.1,2.14.364,2.63,1.092,2.63,0.754,0,1.3-.65,1.3-1.77C938.321,3126.74,936.371,3123.93,933.3,3123.49Zm-9.62,41.95c7.28,0.78,10.764-1.79,10.712-4.76-0.052-2.99-2.626-4.65-5.174-4.65-2.678,0-4.68,1.43-6.6,2.55-0.494.28-.6,0.05-0.6-0.37a24.532,24.532,0,0,1,.7-4.23,16.976,16.976,0,0,0,.1-1.8,0.881,0.881,0,0,1,.832-0.94,17.242,17.242,0,0,1,3.718-.18c1.378,0.05,1.9-.18,1.9-1.12,0-1.79-2.028-3.71-4.758-4.08-0.884-.1-1.17.31-0.338,0.78a7.022,7.022,0,0,1,2.21,1.77c0.416,0.55.39,1.01-.65,1.27-0.806.21-2.08,0.45-2.964,0.58a1.4,1.4,0,0,0-1.3,1.27,43.15,43.15,0,0,0-1.326,8.19,1.715,1.715,0,0,0,1.456,1.82c0.806,0,1.4-1.06,2.288-1.87,1.248-1.12,3.38-2.47,5.3-2.47a3.148,3.148,0,0,1,3.146,2.89c0.052,3.01-3.848,4.08-8.632,4.42C922.825,3164.56,922.955,3165.36,923.683,3165.44Zm4.342,15.56c-1.222,3.48-4.966,8.55-7.462,8.55-0.754,0-1.456-1.22-1.586-3.22a6.884,6.884,0,0,1,2.054-5.72,7.468,7.468,0,0,1,5.278-1.93,11.53,11.53,0,0,1,2.184.21A8.127,8.127,0,0,1,928.025,3181Zm-1.638-3.62a9.921,9.921,0,0,0-6.37,2.32,8.473,8.473,0,0,0-2.73,7.23c0.234,3.07,1.586,4.96,2.964,4.96,3.12,0,7.462-5.17,8.97-9.33a12.571,12.571,0,0,0,.728-3.2,6.409,6.409,0,0,1,4.03,6.19c0,4.26-2.912,6.16-7.41,7.05-0.806.15-.754,0.96,0.156,0.96,5.356,0,9.36-2.58,9.36-7.57C936.085,3181.31,932.6,3177.38,926.387,3177.38Z" transform="translate(-914.656 -3019.41)"/>
</svg>
