<svg height="124.781" viewBox="0 0 18.66 124.781" width="18.66" xmlns="http://www.w3.org/2000/svg"><path d="m2337.08 543.093c-.5-.1-.64.281-.38.581a14.5 14.5 0 0 1 .98 1.28c.42.66.7 1.1 1.2 1.02a.8.8 0 0 0 .74-.96c-.12-.96-1.36-1.68-2.54-1.921zm-.98-2.86c.02-1.36.02-2.7.04-3.281.44-.06.62-.24.62-.42a.393.393 0 0 0 -.34-.28c1.06-.18 1.92-.36 2.38-.48.78.42 1.12.08.88-.34a3.693 3.693 0 0 0 -.84-.94.643.643 0 0 0 -.96-.1 30.073 30.073 0 0 1 -6.98 1.78c-.58.14-.5.68.06.66a32.772 32.772 0 0 0 3.68-.3 35.767 35.767 0 0 1 .2 3.7h-4.06a.371.371 0 0 0 -.44.4.363.363 0 0 0 .44.4h3.56a16.079 16.079 0 0 1 -4.32 7.122c-.42.42-.02.86.5.54a13.354 13.354 0 0 0 4.32-4.921c0 1.06-.12 6.921-.12 7.541a.5.5 0 0 0 .54.58c.62 0 .88-.22.88-.68 0-.74-.04-6.561-.04-7.441v-2.741h3.04c.5 0 .9-.16.9-.44a3.065 3.065 0 0 0 -1.62-1.66 3.164 3.164 0 0 0 -1.18 1.3h-1.14zm5.82 8.042-.02-4.8c0-.681 0-4.621.08-5.822h4.36c.02 1.761-.02 7.522-.04 10.623h-4.38zm.72-11.423a5.392 5.392 0 0 0 -2.02-.86.273.273 0 0 0 -.28.28c.3 2.761.08 12.2.08 14.443a.51.51 0 0 0 .58.58c.64 0 .94-.24.94-.68v-1.54h4.34v1.18a.616.616 0 0 0 .64.68c.58 0 .96-.14.96-.76 0-1.4-.22-9.6-.08-12.243a.929.929 0 0 0 .7-.62 2.611 2.611 0 0 0 -1.64-1.32 2.187 2.187 0 0 0 -.92.86zm-6.64 37.693c-.32-.36-.76-.88-1.24-1.5.74-1.08 1.56-2.26 2.08-2.981a24.693 24.693 0 0 1 -.32 4.4c-.1.401-.26.381-.52.081zm2.24-6.521a1.994 1.994 0 0 0 -.44-1.12c.04-1.28.12-2.741.12-3.441 0-1.08-.38-1.32-1.88-1.32a1.053 1.053 0 0 0 -1.16.56 1.2 1.2 0 0 0 .9.58 1 1 0 0 1 .78.94 20.827 20.827 0 0 1 .2 2.3 6.411 6.411 0 0 0 -1.46.68 10.312 10.312 0 0 1 -2.1 1.14 3.219 3.219 0 0 1 -1.3-.54.172.172 0 0 0 -.28.1 1.248 1.248 0 0 0 0 .86 1.558 1.558 0 0 0 1.38 1 3.385 3.385 0 0 0 1.86-.92c.68-.54.9-.72 1.08-.84.26-.18.42-.16.28.28-.88 2.741-3.84 5.561-4.38 6.221a1.073 1.073 0 0 0 -.28 1.341c.64.54 1.28-.08 1.62-.54.2-.28.64-.9 1.14-1.621a11.446 11.446 0 0 1 1.28 2.261c.16.52.24 1.76.82 1.76a1.121 1.121 0 0 0 1.06-1.08 47.305 47.305 0 0 0 .3-7.142 7.656 7.656 0 0 1 4.86-2c1.72 0 3.1.92 3.1 3.621 0 2.34-1.9 4.2-5.82 5.321-.42.12-.3.62.14.58 4.38-.4 7.26-2.6 7.26-5.761a4.291 4.291 0 0 0 -4.56-4.661 8.049 8.049 0 0 0 -4.52 1.5v-.06zm.48 22.3a1.448 1.448 0 0 0 -1.2.64c0 .26.24.32.82.6a.9.9 0 0 1 .54.92 24.484 24.484 0 0 1 .1 2.621c0 3.561-.3 6.081-.3 7.162 0 1.04.2 1.64.82 1.64.5 0 .9-.26.9-1.2 0-1.241-.04-2.441-.04-5.141 0-2.021.04-2.981.1-3.981.08-1.2.26-1.481.26-2.161 0-.601-1.28-1.101-2-1.101zm1.44 25.348c-.4-.14-.56.04-.5.34.04.2.16.42.26.8a1.577 1.577 0 0 1 -.4 1.421c-.8 1.04-2.36 2.84-3.18 3.84a3.586 3.586 0 0 0 -1.1 2.181 2.441 2.441 0 0 0 1.04 1.74 38.645 38.645 0 0 1 3.18 3.081 11.1 11.1 0 0 1 1.42 2.1 1.163 1.163 0 0 0 .9.861.838.838 0 0 0 .84-.941 4.126 4.126 0 0 0 -1.64-2.9 44.71 44.71 0 0 0 -3.5-2.821 2.126 2.126 0 0 1 -1.12-1.34 1.932 1.932 0 0 1 .72-1.26c.92-.981 2.94-2.861 4.24-4.1.8-.76.78-1.061.46-1.621a3.145 3.145 0 0 0 -1.62-1.382zm.5 36.694a1.283 1.283 0 1 1 -2.56-.12 1.5 1.5 0 0 1 1.36-1.661 1.135 1.135 0 0 1 1.12.841 5.931 5.931 0 0 1 .08.939zm5.42-6.322a40.05 40.05 0 0 0 -4.6.54c.04-.66.1-1.28.18-1.78.14-.94.14-1.18-.24-1.46a3.2 3.2 0 0 0 -1.68-.44c-.34 0-.9.1-.9.46a1.4 1.4 0 0 0 .86.66c.44.24.46.48.52 1.34.02.3.04.82.06 1.421-2.84.48-5.82 1.12-6.78 1.12a3.069 3.069 0 0 1 -1.72-.62c-.34-.2-.52-.12-.52.22a2.333 2.333 0 0 0 2 1.98 11.393 11.393 0 0 0 2.98-.72 35.5 35.5 0 0 1 4.06-.94c0 .68.02 1.38.02 2.02a2.685 2.685 0 0 0 -.7-.08 2.552 2.552 0 0 0 -2.6 2.821 2.092 2.092 0 0 0 2.24 2.4 2.151 2.151 0 0 0 1.5-.52c-.32 2.241-2.2 3.121-4.56 3.861a.336.336 0 1 0 .12.66c3.58-.36 6-2.2 6-5.5a4.271 4.271 0 0 0 -.86-2.941c0-1.04.02-2.16.02-2.9a20.256 20.256 0 0 1 2.44-.16 28.193 28.193 0 0 1 3.38.34c.4 0 .72-.12.72-.52 0-.723-.86-1.263-1.94-1.263z" fill="#010101" fill-rule="evenodd" transform="translate(-2329.84 -534.219)"/></svg>