<svg height="122.374" viewBox="0 0 16.28 122.374" width="16.28" xmlns="http://www.w3.org/2000/svg"><path d="m2412.41 548.065c-.62 1.441-.92 1.561-2.02 1.781-.66.14-.6.72.04.72.28 0 1.24-.06 2.14-.06.88 0 1.42.04 2 .04.72 0 .78-.62.08-.72-1.44-.24-1.54-.4-1.14-1.5.44-1.26.86-2.3 1.18-3.08a.28.28 0 0 1 .22-.18h4.2c.28 0 .34.04.4.22.48 1.18 1.2 2.88 1.48 3.7.16.461.1.661-.72.821-.72.12-.68.74.08.74.42 0 1.38-.04 2.02-.04.78 0 1.54.04 2 .04.72 0 .84-.64-.04-.74a1.716 1.716 0 0 1 -1.58-1.281c-1.26-2.86-3.22-7.621-4.36-10.682a3.429 3.429 0 0 1 -.28-1.1.278.278 0 0 0 -.32-.3 1.941 1.941 0 0 0 -1.02.88c-.04.12-.14.5-.32.94-.88 2.08-3.18 7.801-4.04 9.801zm4.66-9.022c.8 2 1.38 3.621 1.92 4.841.04.1.06.18-.18.18h-3.56c-.12 0-.14-.02-.12-.12.5-1.16 1.56-4.001 1.94-4.901zm-3.32 35a13.908 13.908 0 0 1 -.06 1.88c-.04.581-.1.721-1 .9-.6.1-.62.72.06.72.52 0 1.08-.04 1.74-.04.72 0 1.38.04 1.82.04.64 0 .68-.62.1-.72-1-.18-1.08-.32-1.1-.881a10.724 10.724 0 0 1 -.06-1.6v-3.4a.675.675 0 0 1 .14-.52 3.22 3.22 0 0 1 2.26-1.22 2.136 2.136 0 0 1 2.26 2.44v1.341c0 1.94-.04 2.4-.06 2.8-.02.641-.08.841-1.14 1.041-.62.1-.62.72.1.72.38 0 1.16-.04 1.68-.04.68 0 1.22.04 1.86.04.66 0 .68-.62.06-.72-.88-.16-1-.24-1-.881v-4.6c0-2.24-1.1-3.46-2.78-3.46a3.138 3.138 0 0 0 -1.68.52 14.6 14.6 0 0 0 -1.66 1.2 6.831 6.831 0 0 0 -.1-1.4.3.3 0 0 0 -.3-.32 1.359 1.359 0 0 0 -.52.22 7.036 7.036 0 0 1 -1.6.8.324.324 0 0 0 -.04.62c.92.3 1.02.48 1.02 1.08v3.441zm3.79 30.461c.72 0 1.2.04 1.7.04.7 0 .7-.64.08-.74-.92-.18-1-.34-1-1.28v-4.641a13.94 13.94 0 0 1 .16-2.561c.04-.3-.08-.44-.28-.44a1.056 1.056 0 0 0 -.5.2 5.025 5.025 0 0 1 -1.7.62c-.48.08-.46.52-.1.66.8.32.86.4.88.72a5.418 5.418 0 0 1 .04.9v4.641a.927.927 0 0 1 -.98 1.18c-.64.12-.62.74.06.74.36.003 1.08-.037 1.64-.037zm.04-14.463a1.138 1.138 0 0 0 -1.12 1.2 1.057 1.057 0 0 0 1.06 1.12 1.13 1.13 0 0 0 1.12-1.22 1.088 1.088 0 0 0 -1.06-1.098zm.52 33.481a2.457 2.457 0 0 0 -2.32-1.64 2.922 2.922 0 0 0 -1.84.58c-.76.56-1.32.96-1.54 1.14a10.386 10.386 0 0 0 -.1-1.38.364.364 0 0 0 -.3-.34.782.782 0 0 0 -.44.2 8.765 8.765 0 0 1 -1.68.86.307.307 0 0 0 0 .6c.82.24.94.46.96.68a5.841 5.841 0 0 1 .06 1.1v2.941a14.4 14.4 0 0 1 -.04 1.76c-.08.561-.18.621-1.06.821-.54.1-.52.7.06.7.5 0 1.2-.04 1.76-.04.54 0 1.52.04 1.88.04.58 0 .62-.62.12-.7-1-.2-1.12-.36-1.16-.9-.02-.22-.06-.72-.06-1.48v-3.7a.391.391 0 0 1 .1-.34 2.946 2.946 0 0 1 2.24-1.18c1.36 0 2.2.64 2.2 2.8v2.66c0 .78-.02 1.2-.04 1.4-.04.381-.1.521-1.06.721-.62.1-.54.72.06.72.4 0 1.12-.04 1.66-.04s1.52.04 1.82.04c.58 0 .64-.56.04-.7-.92-.22-.98-.3-.98-1.1v-4.581a3.61 3.61 0 0 0 -.1-.9.57.57 0 0 1 .08-.16 3.084 3.084 0 0 1 2.12-.86c1.3 0 2.18.64 2.18 2.681v2.24a15.316 15.316 0 0 1 -.08 2.08c-.04.221-.2.421-1.08.6-.58.1-.52.7.04.7.36 0 1.52-.04 1.92-.04.76 0 1.26.04 1.7.04.58 0 .64-.56.08-.7-.84-.2-.96-.22-1.02-.621a11.468 11.468 0 0 1 -.04-1.28v-3.781c0-1.72-.94-3.28-2.78-3.28a3.285 3.285 0 0 0 -1.74.48c-.54.361-1.24.837-1.62 1.161zm.97 29.981c-.3-.02-.58-.04-.78-.04-2.26 0-4.88 1.02-4.88 2.86a2.276 2.276 0 0 0 2.14 2.481 5.492 5.492 0 0 0 3.42-1.661c.04 1 .12 1.561.76 1.581a3.575 3.575 0 0 0 1.9-.48c.42-.24.42-.78 0-.76a1.344 1.344 0 0 1 -1.14-.3.862.862 0 0 1 -.06-.4c0-.24.06-3.34.06-4.641s-.46-3.26-2.84-3.26a8.088 8.088 0 0 0 -3.48 1.56.691.691 0 0 0 -.28.6 2.036 2.036 0 0 0 .2.9c.26.6.72.48.88.06.18-.44.28-1 .48-1.38a1.335 1.335 0 0 1 1.36-.68c.98 0 2.18.56 2.26 2.54v1.021zm0 2.12a.837.837 0 0 1 -.24.72 2.8 2.8 0 0 1 -2.24 1.161 1.381 1.381 0 0 1 -1.54-1.481c0-1.04.92-1.68 2.3-1.7a7.41 7.41 0 0 1 1.58.08c.08.02.14.02.14.14z" fill="#010101" fill-rule="evenodd" transform="translate(-2409.41 -536.438)"/></svg>