<svg height="98.375" viewBox="0 0 18.81 98.375" width="18.81" xmlns="http://www.w3.org/2000/svg"><path d="m2262 543c-.06 1.34-.32 5.481-.4 7.022h-5.36c.3-1.7.78-4.641 1.12-7.022zm1.12 7.022c0-1.481.22-4.981.36-6.5a1.159 1.159 0 0 0 .88-.76 2.755 2.755 0 0 0 -1.76-1.42 2.232 2.232 0 0 0 -.96.86h-4.18c.26-1.94.44-3.581.54-4.741.5-.04.74-.12.74-.4a.377.377 0 0 0 -.2-.28h7.18c.8 0 1.16-.2 1.16-.48a3.554 3.554 0 0 0 -1.94-1.761 3.484 3.484 0 0 0 -1.36 1.441h-13a.371.371 0 0 0 -.44.4.363.363 0 0 0 .44.4h5.9c-.06 1.18-.22 3.06-.54 5.421h-4.26a.371.371 0 0 0 -.44.4.363.363 0 0 0 .44.4h4.16c-.32 2.341-.82 5.281-1.22 7.022h-4.86a.371.371 0 0 0 -.44.4.363.363 0 0 0 .44.4h16.94c.78 0 1.14-.18 1.14-.48a3.552 3.552 0 0 0 -1.9-1.761 3.364 3.364 0 0 0 -1.36 1.441h-1.46zm-8.06 21.279a18.116 18.116 0 0 0 .22-2.481c.02-.5.04-1 .04-1.5h7.12v3.98h-7.38zm7.38-8.362v3.581h-7.1c.02-1.221.04-2.441.02-3.581zm-6.86-.8a5.586 5.586 0 0 0 -1.62-.74c-.26-.04-.38.06-.34.38a63.418 63.418 0 0 1 .22 6.341c-.06 5.221-1.32 7.522-4.18 10.042-.48.42-.1.88.42.58a9.653 9.653 0 0 0 4.84-6.641h7.52c.02 1.56.02 3.161-.04 4.081a.714.714 0 0 1 -.84.8c-.52 0-1.6-.14-1.8-.14a.332.332 0 0 0 -.04.66c1.64.4 1.24 1.26 2.04 1.26a1.894 1.894 0 0 0 2.04-1.8c.02-4.441-.02-10.2.08-13.6a1.2 1.2 0 0 0 .86-.66 3.214 3.214 0 0 0 -1.84-1.52 3.18 3.18 0 0 0 -.98.96h-6.34zm3.56 28.08c.88-.14 1.22-.48 1.22-.76 0-.5-1.94-.82-2.6-.82-.26 0-.32.1-.3.3.08.88.14 1.74.16 2.72a13.969 13.969 0 0 1 -1.74 7.7 15.682 15.682 0 0 1 -6.34 5.641c-.48.26-.26.86.3.66a14.022 14.022 0 0 0 7.36-5.881 12.594 12.594 0 0 0 1.6-4.721c.86 5 3.36 8.282 6.8 10.142a.616.616 0 0 0 .94-.22 1.394 1.394 0 0 1 .88-.56c.52-.16.58-.5-.02-.7-4.6-1.52-8.1-5.781-8.28-12.883zm6.22 29.887a12.628 12.628 0 0 1 -5.54 5.622c-.48.26-.16.76.32.6a13.548 13.548 0 0 0 6.2-4.641c.7.14 1.12.02 1.14-.3.04-.52-.9-1.12-1.62-1.441a.337.337 0 0 0 -.5.164zm-4.48.581a15.067 15.067 0 0 0 4.88-3.961c.64.1 1.08.1 1.12-.24.06-.5-.88-1.141-1.6-1.441a.355.355 0 0 0 -.52.18 12.78 12.78 0 0 1 -4.26 4.821c-.52.385-.14.865.38.645zm-7.14 2.44c.06-1.78.06-3.721.04-5.441a.885.885 0 0 0 .74-.38h1.78v5.821zm3.92.8h2.48c.52 0 .92-.16.92-.46a3.146 3.146 0 0 0 -1.64-1.72 3.285 3.285 0 0 0 -1.24 1.38h-.52v-5.4a.742.742 0 0 0 .72-.42h1.34c.66 0 1.04-.18 1.04-.46a1.549 1.549 0 1 0 -3.08-.34h-7.8a.371.371 0 0 0 -.44.4.363.363 0 0 0 .44.4h2.4c.14 1.92.08 4.161.04 5.821h-2.62a.371.371 0 0 0 -.44.4.363.363 0 0 0 .44.4h2.6c-.18 4.061-1.14 6.042-2.96 8.262-.42.5.04.92.48.58 3.08-2.38 3.72-5.661 3.88-8.842h2.6v.48c0 4.561-.08 7-.08 7.882a.51.51 0 0 0 .56.6.809.809 0 0 0 .98-.72c0-.8-.1-3.281-.1-7.762v-.48zm8.58 1.341a.3.3 0 0 0 -.42.18c-1.3 2.96-3.5 4.941-7.1 6.7-.5.24-.32.74.2.62a13.561 13.561 0 0 0 7.9-5.7c.66.1 1.12.04 1.14-.28 0-.516-.94-1.216-1.72-1.516z" fill="#010101" fill-rule="evenodd" transform="translate(-2249.16 -534.531)"/></svg>