<svg height="96.75" viewBox="0 0 18.81 96.75" width="18.81" xmlns="http://www.w3.org/2000/svg"><path d="m2185.68 546.925a6.335 6.335 0 0 1 -2.76-5.441 26.835 26.835 0 0 1 .6-4.161.99.99 0 0 0 -.88-1.18c-.54 0-.72.52-.8 1.14a18.32 18.32 0 0 0 -.06 2.64c-.42 4.621-1.56 8.722-5.62 8.722a2.017 2.017 0 0 1 -2.28-2.1c0-2.741 2.22-5.381 2.9-6.141.76-.861 1.72-1.281 1.72-1.8a1.246 1.246 0 0 0 -1.54-.84c-.24.12-.8.52-1.28.78a8.057 8.057 0 0 1 -3.74.96 4.6 4.6 0 0 1 -1.5-.38c-.4-.16-.54 0-.44.42a1.932 1.932 0 0 0 1.64 1.561c.96 0 2.74-.92 3.82-1.341.46-.18.56-.12.24.341-.9 1.34-3 3.98-3 6.841a3.144 3.144 0 0 0 3.46 3.3c3.8 0 5.28-2.761 5.86-7a8.266 8.266 0 0 0 2.62 5.241c.8.7 1.8.941 2.18.26.34-.602-.22-1.222-1.14-1.822zm-5.6 28.441c0 .68-.36 1.28-1.58 1.28-.94 0-1.26-.34-1.26-.84 0-1.021 1.46-1.381 2.28-1.381a3.1 3.1 0 0 1 .44.02 3.639 3.639 0 0 1 .12.921zm4.76-.24a8.34 8.34 0 0 0 -3.94-1.541 7.336 7.336 0 0 1 -.22-1.6 2.013 2.013 0 0 1 2.04-2.141 1.641 1.641 0 0 1 1.44.32 1.346 1.346 0 0 0 .94.481.511.511 0 0 0 .52-.5c0-1.18-2.02-2.66-4.52-2.66-1.9 0-3.5.76-5.42 2.4.7-1.36 1.32-2.68 1.74-3.62a35.053 35.053 0 0 0 5.04-1.3.927.927 0 0 0 .76-.72.955.955 0 0 0 -1.04-.64 3.819 3.819 0 0 0 -1.52.48 14.9 14.9 0 0 1 -2.76.96 9.922 9.922 0 0 0 .62-2.06c0-.62-.84-1.02-1.82-1.02-.5 0-1.18.14-1.18.48a1.194 1.194 0 0 0 .9.6c.52.22.68.36.58.8-.06.26-.2.78-.42 1.44a13.514 13.514 0 0 1 -2 .18 4.331 4.331 0 0 1 -2.8-1.44.281.281 0 0 0 -.48.22 2.33 2.33 0 0 0 2.22 2.381 20.094 20.094 0 0 0 2.66-.2 27.246 27.246 0 0 1 -3.56 6.041c-1 1.3-1.72 1.98-1.72 2.661a.673.673 0 0 0 .6.76c.82 0 1.58-1.4 2.3-2.5 1.68-2.58 4.38-5.081 6.74-5.081a3.64 3.64 0 0 1 2.36.64c-1.7.42-3.22 1.341-3.22 3.3a7.735 7.735 0 0 0 .1 1.28c-2.64.08-3.46 1.32-3.46 2.361 0 1.32 1.08 2.04 2.76 2.04 1.7 0 2.32-.98 2.32-1.82a5.856 5.856 0 0 0 -.24-1.481 5.719 5.719 0 0 1 2.62 1.741 2.244 2.244 0 0 0 1.44.94.582.582 0 0 0 .6-.68 2.369 2.369 0 0 0 -.98-1.502zm-5.7 15.1c.88-.14 1.22-.48 1.22-.76 0-.5-1.94-.82-2.6-.82-.26 0-.32.1-.3.3.08.88.14 1.74.16 2.72a13.969 13.969 0 0 1 -1.74 7.7 15.682 15.682 0 0 1 -6.34 5.641c-.48.26-.26.86.3.66a14.022 14.022 0 0 0 7.36-5.881 12.594 12.594 0 0 0 1.6-4.721c.86 5 3.36 8.282 6.8 10.142a.616.616 0 0 0 .94-.22 1.394 1.394 0 0 1 .88-.56c.52-.16.58-.5-.02-.7-4.6-1.52-8.1-5.781-8.28-12.883zm6.22 29.887a12.628 12.628 0 0 1 -5.54 5.622c-.48.26-.16.76.32.6a13.548 13.548 0 0 0 6.2-4.641c.7.14 1.12.02 1.14-.3.04-.52-.9-1.12-1.62-1.441a.337.337 0 0 0 -.5.157zm-4.48.581a15.067 15.067 0 0 0 4.88-3.961c.64.1 1.08.1 1.12-.24.06-.5-.88-1.141-1.6-1.441a.355.355 0 0 0 -.52.18 12.78 12.78 0 0 1 -4.26 4.821c-.52.378-.14.858.38.638zm-7.14 2.44c.06-1.78.06-3.721.04-5.441a.885.885 0 0 0 .74-.38h1.78v5.821zm3.92.8h2.48c.52 0 .92-.16.92-.46a3.146 3.146 0 0 0 -1.64-1.72 3.285 3.285 0 0 0 -1.24 1.38h-.52v-5.4a.742.742 0 0 0 .72-.42h1.34c.66 0 1.04-.18 1.04-.46a1.549 1.549 0 1 0 -3.08-.34h-7.8a.371.371 0 0 0 -.44.4.363.363 0 0 0 .44.4h2.4c.14 1.92.08 4.161.04 5.821h-2.62a.371.371 0 0 0 -.44.4.363.363 0 0 0 .44.4h2.6c-.18 4.061-1.14 6.042-2.96 8.262-.42.5.04.92.48.58 3.08-2.38 3.72-5.661 3.88-8.842h2.6v.48c0 4.561-.08 7-.08 7.882a.51.51 0 0 0 .56.6.809.809 0 0 0 .98-.72c0-.8-.1-3.281-.1-7.762v-.48zm8.58 1.341a.3.3 0 0 0 -.42.18c-1.3 2.96-3.5 4.941-7.1 6.7-.5.24-.32.74.2.62a13.561 13.561 0 0 0 7.9-5.7c.66.1 1.12.04 1.14-.28 0-.523-.94-1.223-1.72-1.523z" fill="#010101" fill-rule="evenodd" transform="translate(-2169.16 -536.156)"/></svg>