<svg xmlns="http://www.w3.org/2000/svg" width="39.718" height="129.65" viewBox="0 0 39.718 129.65">
  <defs>
    <style>
      .cls-1 {
        fill-rule: evenodd;
      }
    </style>
  </defs>
  <path id="text-hello02" class="cls-1" d="M880.32,3152.34c-1.47,0-3.991.67-8.276,0.67-5.755,0-9.115-2.19-9.115-5.8,0-3.36,3.486-7.27,7.519-9.41a13.419,13.419,0,0,1,6.343-1.47c1.386-.08,2.353-0.38,2.353-1.38,0-1.05-1.555-2.06-2.941-2.06s-3.361.71-6.6,0.16a9.972,9.972,0,0,1-6.217-3.61c-0.714-.8-1.386-0.42-1.218.63a6.117,6.117,0,0,0,3.78,4.71,14.972,14.972,0,0,0,2.605.75c0.462,0.09.63,0.26,0.126,0.63-4.2,3.15-8.192,7.4-8.192,12.19,0,3.94,3.781,7.89,11.846,7.89,7.394,0,10.376-.92,10.376-2.31C882.714,3152.76,881.5,3152.34,880.32,3152.34Zm1.89-27.64c-0.8,0-1.092.71-.42,1.21a21.8,21.8,0,0,1,3.109,2.61c0.8,0.88,1.218,1.22,1.848,1.22a1.347,1.347,0,0,0,1.386-1.47C888.133,3126.12,884.9,3124.74,882.21,3124.7Zm-3.318,3.48a0.638,0.638,0,0,0-.505,1.14,33.861,33.861,0,0,1,2.521,2.52c0.966,1.13,1.26,1.85,2.226,1.85a1.406,1.406,0,0,0,1.429-1.48C884.563,3130.24,881.622,3128.39,878.892,3128.18Zm-10.376,51.6c0.588,0.04.924-.55,1.134-1.43a89.561,89.561,0,0,0,16-1.93c0.924,1.55,1.386,2.73,2.52,2.65a1.8,1.8,0,0,0,1.6-2.19c-0.126-2.39-2.856-4.62-5.881-5.67-1.134-.38-1.638.55-1.008,1.39,0.546,0.71,1.218,1.43,1.807,2.31-2.983.29-6.47,0.54-10.67,0.63,1.344-1.98,2.6-4.25,3.57-5.93,0.966-.04,2.059-0.25,2.059-0.88,0-.84-2.227-1.8-4.075-2.18a0.562,0.562,0,0,0-.756.42,36.233,36.233,0,0,1-3.235,8.57c-1.386,0-2.814,0-4.327-.04a0.475,0.475,0,0,0-.5.54C866.961,3178.14,867.676,3179.74,868.516,3179.78Zm-3.571-1.93c0.63,0,1.47-.25,1.47-0.88,0-.84-2.016-3.24-2.814-3.24-0.5,0-1.386,1.22-2.185,2.44H861.08c0-2.44.042-4.67,0.084-6.51,1.471-.38,2.227-0.76,2.227-1.47,0-.93-2.269-1.31-4.7-1.31-0.672,0-.882.17-0.84,0.68,0.252,2.26.378,5.5,0.42,8.61h-5.251a0.78,0.78,0,0,0-.924.84,0.764,0.764,0,0,0,.924.84h5.293c0.042,2.6.042,4.91,0.042,6.26v2.14c-1.932.67-4.033,1.34-6.3,1.93a0.464,0.464,0,0,0-.462.59c0.336,2.1,1.134,3.61,1.932,3.61,0.672,0,.966-0.84,1.134-1.8,1.26-.51,2.521-1.05,3.7-1.56,0.042,3.95.042,8.24-.084,10.34-0.084,1.34-.588,1.72-1.554,1.68-0.631,0-1.387-.09-2.269-0.17-0.924,0-1.05,1.05-.126,1.43,2.941,0.92,2.311,2.39,3.7,2.39,1.764,0,3.066-1.39,3.066-3.78,0-4.03,0-8.61-.042-13.15a33.087,33.087,0,0,0,5-2.85c1.344-.97.8-2.02-0.714-1.39q-1.953.885-4.285,1.76v-7.43h3.907Zm23.65,14.99c1.344,0,2.1-.33,2.1-0.92,0-.97-2.773-3.4-3.571-3.4-0.588,0-1.638,1.38-2.478,2.64h-5.924a25.337,25.337,0,0,0,.337-4.53c0.8-.21,1.134-0.46,1.134-1.01v-0.08h7.141c1.344,0,2.1-.34,2.1-0.93,0-.92-2.772-3.36-3.57-3.36-0.588,0-1.6,1.39-2.437,2.6H872.716c0.421-.75.8-1.42,1.093-1.97,1.26,0,1.89-.25,1.89-0.88-0.042-.8-2.436-1.77-3.823-2.02a0.654,0.654,0,0,0-.84.55,23.34,23.34,0,0,1-5,9.7c-0.672.97,0.168,1.72,1.134,1.01a19.562,19.562,0,0,0,4.453-4.7h4.285a34.151,34.151,0,0,1-.168,5.62H865.7a0.78,0.78,0,0,0-.924.84,0.76,0.76,0,0,0,.924.84h9.7c-1.344,5.42-5.167,8.28-12.182,10.38-1.176.34-.882,1.72,0.336,1.47,8.4-1.68,12.938-5.08,14.66-11.17a14.277,14.277,0,0,0,9.032,10.83,1.246,1.246,0,0,0,1.722-.33,2.679,2.679,0,0,1,1.6-1.26c0.966-.3,1.008-1.05,0-1.26-5.041-1.05-9.074-3.45-10.8-8.66H888.6Zm-13.148,31.77a17.777,17.777,0,0,1,2.268,2.74,21.993,21.993,0,0,1,1.6,3.02,1.461,1.461,0,0,0,1.638,1.01,1.64,1.64,0,0,0,1.344-1.93c-0.126-.93-1.176-3.11-3.907-4.79a18.577,18.577,0,0,0,3.361-4.25c1.26,0.09,1.806-.16,1.848-0.75,0-.72-2.184-1.85-3.612-2.23a0.609,0.609,0,0,0-.8.51,20.665,20.665,0,0,1-2.311,5.92c-0.21-.09-0.42-0.17-0.63-0.25C875.405,3223.31,874.943,3224.15,875.447,3224.61Zm-5.419,2.69a23.81,23.81,0,0,1,1.638,3.11c0.462,0.84.84,1.18,1.6,1.09a1.646,1.646,0,0,0,1.386-1.97c-0.084-.92-1.134-3.11-3.781-4.83a22.106,22.106,0,0,0,3.4-4.41c1.26,0.08,1.806-.17,1.848-0.76,0-.71-2.184-1.85-3.613-2.22a0.6,0.6,0,0,0-.8.5,21.935,21.935,0,0,1-2.394,6.01,5.03,5.03,0,0,0-.756-0.34,0.677,0.677,0,0,0-.882,1.01A16.619,16.619,0,0,1,870.028,3227.3Zm-3.781.76c0.882,0,1.723-.29,1.723-0.88-0.042-.89-2.353-3.32-3.109-3.32-0.546,0-1.512,1.3-2.31,2.52h-0.925c0-2.73.042-5.17,0.084-7.18,1.345-.38,2.269-0.76,2.269-1.43,0-.76-1.6-1.35-4.747-1.35-0.714,0-.882.21-0.8,0.84a90.8,90.8,0,0,1,.42,9.12h-5.545a0.78,0.78,0,0,0-.924.84,0.764,0.764,0,0,0,.924.84H858.9c0.042,3.4.042,6.59,0.042,8.02v0.13c-2.016.75-4.159,1.51-6.511,2.18a0.539,0.539,0,0,0-.462.63c0.336,2.23,1.05,3.91,1.932,3.91,0.714,0,1.092-1.05,1.218-2.14,1.345-.55,2.605-1.14,3.823-1.68,0.042,3.74.042,7.6-.084,9.99-0.084,1.31-.546,1.6-1.3,1.6-0.63.04-1.807-.04-2.521-0.08-0.84,0-.966.88-0.042,1.3,2.689,1.01,2.017,2.39,3.529,2.39,2.058,0,3.15-1.63,3.15-3.78,0-3.9,0-8.36-.042-12.73a44.9,44.9,0,0,0,6.134-3.73c1.344-1.01.756-2.1-.8-1.39-1.638.8-3.4,1.64-5.335,2.44v-7.06h4.621Zm9.41,8.36c0.5-.76.966-1.47,1.344-2.1,1.218,0.17,1.933-.04,1.975-0.67,0.042-.8-2.395-2.02-3.781-2.4a0.652,0.652,0,0,0-.882.46c-1.6,4.75-5.293,9.88-10.292,14.45-0.924.84-.21,1.81,0.84,1.14a35.508,35.508,0,0,0,9.62-9.2h10.712c-3.949,8.4-9.746,12.1-20.584,14.7-1.3.25-1.05,1.72,0.252,1.56,11.132-1.35,18.945-5.63,23.65-15.21,1.008-.21,2.1-0.63,2.1-1.14,0-.96-2.605-3.52-3.4-3.52-0.462,0-1.428,1.05-2.142,1.93h-9.41Zm1.386,10.04a1.71,1.71,0,0,0,1.638-1.98c-0.084-1.84-2.31-3.27-4.62-3.94-1.093-.3-1.471.54-0.924,1.26a23.087,23.087,0,0,1,1.68,2.52C875.489,3245.53,875.993,3246.5,877.043,3246.46Zm6.721-22.52c-0.882-.25-1.3.59-0.8,1.05a17.548,17.548,0,0,1,2.437,2.57,28.059,28.059,0,0,1,1.764,2.98,1.481,1.481,0,0,0,1.638.92,1.587,1.587,0,0,0,1.219-2.01c-0.169-.97-1.387-3.16-4.285-4.67a22.315,22.315,0,0,0,3.4-4.24c1.261,0.13,1.807-.13,1.849-0.71,0-.72-2.143-1.89-3.571-2.31a0.6,0.6,0,0,0-.8.5,22.075,22.075,0,0,1-2.521,6.05Z" transform="translate(-851.594 -3124.69)"/>
</svg>
