<svg height="22.53" viewBox="0 0 353.22 22.53" width="353.22" xmlns="http://www.w3.org/2000/svg"><path d="m2189.75 1249.03c-.88 0-2.38.4-4.92.4-3.43 0-5.43-1.3-5.43-3.45 0-2 2.08-4.32 4.48-5.6a7.92 7.92 0 0 1 3.77-.87c.82-.05 1.4-.23 1.4-.83a1.72 1.72 0 0 0 -1.75-1.22 14.182 14.182 0 0 1 -3.92.1 5.985 5.985 0 0 1 -3.7-2.15c-.43-.48-.83-.25-.73.37a3.653 3.653 0 0 0 2.25 2.8 8.977 8.977 0 0 0 1.55.45c.28.05.38.15.08.38-2.5 1.87-4.88 4.4-4.88 7.24 0 2.35 2.25 4.7 7.05 4.7 4.4 0 6.17-.55 6.17-1.37a1.179 1.179 0 0 0 -1.42-.95zm33.75 0c-.88 0-2.38.4-4.92.4-3.43 0-5.43-1.3-5.43-3.45 0-2 2.08-4.32 4.48-5.6a7.92 7.92 0 0 1 3.77-.87c.82-.05 1.4-.23 1.4-.83a1.72 1.72 0 0 0 -1.75-1.22 14.182 14.182 0 0 1 -3.92.1 5.985 5.985 0 0 1 -3.7-2.15c-.43-.48-.83-.25-.73.37a3.653 3.653 0 0 0 2.25 2.8 8.977 8.977 0 0 0 1.55.45c.28.05.38.15.08.38-2.5 1.87-4.88 4.4-4.88 7.24 0 2.35 2.25 4.7 7.05 4.7 4.4 0 6.17-.55 6.17-1.37a1.179 1.179 0 0 0 -1.42-.95zm23.1-14.22c-.3-.2-.65-.15-.65.4a2.694 2.694 0 0 0 2.15 2.4 3.772 3.772 0 0 0 1.4-.43c1.45-.65 3.42-1.67 3.85-1.8.45-.12.67.18.5.6-.53 1.28-3.22 4.18-4.85 5.8-1.35 1.35-3.97 3.68-4.8 4.7a1.3 1.3 0 0 0 -.15 1.87c.45.43 1.1.08 1.63-.45.62-.62 1.2-1.4 2.62-2.72a9.383 9.383 0 0 1 5.8-2.45c2.55 0 3.92 1.35 3.92 3.45 0 2.9-3.8 4.82-8.59 5.25-1.1.1-1.13.97.02.97 6.37 0 10.55-1.72 10.55-5.97 0-2.77-2.28-4.75-5.38-4.75a12.018 12.018 0 0 0 -4.79 1.13 61.946 61.946 0 0 1 5.67-5.53 2.051 2.051 0 0 0 1-1.42c-.03-.9-1.6-1.78-2.45-1.78a5.381 5.381 0 0 0 -1.82.43 18.8 18.8 0 0 1 -3.93 1.07 3.326 3.326 0 0 1 -1.7-.77zm38.13 10.25a.468.468 0 0 0 -.88.32c.6 3.32 3.55 5.2 7.15 5.2 2.15 0 3.8-.28 3.8-1.28a1 1 0 0 0 -1.25-.82c-.75 0-1.8.1-3.05.1-3.57 0-4.97-1.83-5.77-3.52zm-.65-4.08a10.664 10.664 0 0 1 5.09-1.55c.98.03 1.1.3.63.88-.35.4-.88.9-1.3 1.32-.45.45 0 .95.57.6.93-.55 2.25-1.32 3.15-1.87a1.29 1.29 0 0 0 .93-1.1c0-.6-1.15-1.4-3.25-1.4a11.585 11.585 0 0 0 -6.37 2.02 15.749 15.749 0 0 0 -3.4 3.08c-.4.45-.58.3-.48-.2a41.288 41.288 0 0 1 1.6-4.13 2.726 2.726 0 0 0 -.02-2.27 4.019 4.019 0 0 0 -2.28-2.1c-.57-.23-.85.07-.6.55.6 1.12 1.1 1.7 1.1 2.92 0 2.48-1.95 5.85-1.95 10.3 0 1.8.7 3.87 1.7 3.87a.887.887 0 0 0 1.03-1c0-.87-.65-1.57-.65-3.37 0-2.27 1.7-4.87 4.5-6.55zm43.47-5.82a13.359 13.359 0 0 1 -.68 1.62c-.3.6.13.93.68.58.5-.38 1.22-.93 1.87-1.43.65-.1 1.3-.12 1.33-.65 0-.7-1.63-2.12-2.1-2.12a2.783 2.783 0 0 0 -1.23 1h-7.32v-.9c.78-.18 1.32-.38 1.32-.9 0-.68-2.42-.75-2.84-.75a.307.307 0 0 0 -.35.37c.05.63.07 1.45.07 2.18h-6.72a7.237 7.237 0 0 0 -.3-1.05c-.25-.58-.9-.45-.9.12a4.262 4.262 0 0 1 -.25 2.13c-.6 1.17-1.85 1.32-1.85 2.25a.888.888 0 0 0 .92.92 2.785 2.785 0 0 0 2.48-2.77 3.007 3.007 0 0 0 0-.6zm-7.7 2.6a8.8 8.8 0 0 0 .15-.98c.92-.15 1.15-.35 1.15-.65 0-.5-1.72-.72-2.55-.72a.334.334 0 0 0 -.37.45 6.747 6.747 0 0 1 -.18 1.9h-5.35a.464.464 0 0 0 -.55.5.456.456 0 0 0 .55.5h4.98c-.8 1.52-2.6 2.47-6.05 3.17-.83.2-.73 1.03.17.9 4.35-.55 6.73-1.77 7.73-4.07h6.09c.73 0 1.15-.18 1.15-.53a3.65 3.65 0 0 0 -2-1.92 3.509 3.509 0 0 0 -1.35 1.45zm1.07 1.85c-.64-.05-.74.52-.27.85a12.808 12.808 0 0 1 1.62 1.3c.75.67 1.23 1.2 1.8.97a1.02 1.02 0 0 0 .53-1.4c-.43-1.02-2.03-1.65-3.68-1.72zm-6.42 10.52v-.63c0-.45 0-1.72.03-2.17l.15-.03h3.92c0 .75-.02 1.9-.02 2.83zm.5-3.82a6.055 6.055 0 0 0 -1.95-.83.305.305 0 0 0 -.37.33 62.84 62.84 0 0 1 .1 6.32.584.584 0 0 0 .65.67c.7 0 1.07-.22 1.07-.75v-.92h4.05v.45a.728.728 0 0 0 .73.85.839.839 0 0 0 1.04-.95c0-.63-.04-2.9-.02-4a.862.862 0 0 0 .65-.63 2.751 2.751 0 0 0 -1.77-1.47 2.146 2.146 0 0 0 -.98.93zm-6.52-2.88a.464.464 0 0 0 -.55.5.453.453 0 0 0 .55.5h15.32c.1 1 .15 3.8.15 4.62.02 1.13.02 1.58-.03 2.43a.634.634 0 0 1 -.72.7c-.28 0-.95-.05-1.35-.1-.5 0-.6.6 0 .82 1.32.55 1.25 1.23 2 1.23a1.706 1.706 0 0 0 1.82-1.78c-.02-2.42-.02-5.6-.02-7.37a1.42 1.42 0 0 0 1.07-.55h2.73c.92 0 1.35-.22 1.35-.6 0-.62-1.8-2.2-2.33-2.2-.4 0-1.1.98-1.65 1.8zm41.95-10.5a4 4 0 0 1 .9 2.53c0 1.35-1.28 4.12-2.05 6.22a9.808 9.808 0 0 0 -.78 3.28c0 .92.38 1.69 1.08 1.69.57 0 .87-.47.95-1.3a22.974 22.974 0 0 1 .92-4.62 2.09 2.09 0 0 1 2.08-1.52c2.09 0 3.24 2.92 3.19 5.72-.07 4.3-2.69 5.8-7.67 6.87-.92.2-.82 1.03.13.98 5.57-.3 9.49-2.53 9.49-7.37 0-3.7-1.72-7.43-4.97-7.43a3.4 3.4 0 0 0 -1.52.35c.25-.77 1.12-1.97 1.12-3.02a3.468 3.468 0 0 0 -2.17-3.03c-.8-.42-1.1.05-.7.65zm27.9 1.65c.55.73.9 1.35 1.55 1.23a1.134 1.134 0 0 0 .97-1.43c-.2-1.22-1.77-1.9-3.27-2.1-.75-.12-.9.45-.5.88.42.45.87.92 1.25 1.42zm-3.05 4.4a17.209 17.209 0 0 1 1.32 1.38c.58.72.98 1.3 1.65 1.15a1.122 1.122 0 0 0 .9-1.45c-.27-1.25-1.9-1.85-3.4-2-.77-.08-.92.5-.47.92zm4.57 5.2c.15-.65-.6-.87-.9-.27-.4.87-1.25 3.02-1.67 3.77-.2.35-.33.4-.6.32s-.78-.27-1.1-.37a.41.41 0 0 0 -.38.72 3.574 3.574 0 0 1 1.38 1.65 6.663 6.663 0 0 1 0 2 1 1 0 0 0 .95 1.13 1.28 1.28 0 0 0 1.27-1.53c0-1.12-.35-1.7-.35-2.42 0-.7 1.03-3.35 1.4-5zm3.8 2.17a5 5 0 0 1 -.4 1.98c-.62 1.1-1.65 1.17-1.72 2.02a.815.815 0 0 0 .8.95c1.05.13 2.12-.85 2.4-2.47a6.246 6.246 0 0 0 -.13-2.5.475.475 0 0 0 -.95.02zm5.45-2.29a.9.9 0 0 0 .85-.65c0-.53-1.25-.65-2.27-.65-.28 0-.43.07-.4.4.15 1.62.2 6.54.12 8.19-.02.55-.12.78-.55.8-.27 0-.92-.05-1.27-.07-.5-.03-.63.65-.03.82 1.28.38 1.05 1.23 1.9 1.23.9 0 1.6-.5 1.6-1.85zm2.32 2.37c-.62-.35-1.02.1-.77.65.22.6.47 1.25.62 1.82.23.9.4 1.6 1.05 1.73a1.12 1.12 0 0 0 1.35-.95c.23-1.18-.92-2.43-2.25-3.25zm3.85-.25c-.65-.27-.95.22-.62.75a20.459 20.459 0 0 1 1.02 1.85c.4.92.68 1.6 1.38 1.6a1.121 1.121 0 0 0 1.15-1.18c.02-1.22-1.4-2.4-2.93-3.02zm1.63-7.67c.97 0 1.42-.23 1.42-.58-.02-.62-1.87-2.17-2.37-2.17-.4 0-1.13.95-1.68 1.75h-5.7c.2-.58.4-1.15.55-1.75.75 0 1.28-.18 1.25-.55a1.1 1.1 0 0 0 -.7-.63 46.015 46.015 0 0 0 5.68-1.05c.97.35 1.35 0 1-.47a5.959 5.959 0 0 0 -1.33-1.15.881.881 0 0 0 -1.2-.05c-2.8 1.25-7.14 1.87-11.37 2.3-.75.1-.67.92.05.92 1.58-.02 3.23-.1 4.83-.25a14.588 14.588 0 0 1 -.63 2.68h-6.15a.464.464 0 0 0 -.55.5.456.456 0 0 0 .55.5h5.8a16.173 16.173 0 0 1 -6.15 7.07c-.7.45-.35 1.2.43.82a15.019 15.019 0 0 0 7.57-7.89h1.45a11.064 11.064 0 0 0 6.47 6.8c.8.27.95 0 1.18-.4a2.064 2.064 0 0 1 1.02-.83c.45-.22.78-.65-.07-.75-3.15-.57-6.2-2.35-7.48-4.82zm25.13 3.35c1.69 0 2.59 1.6 2.59 3.6 0 3.92-2.82 5.92-7.47 6.64-.97.15-.87.95.08.95 5.34 0 9.34-2.45 9.34-7.24 0-3.68-2.32-5.25-4.82-5.25-1.42 0-2.77.4-4.32.4a2.79 2.79 0 0 1 -2.05-1.43c-.25-.3-.7-.2-.78.4a3.011 3.011 0 0 0 .25 1.7 2.13 2.13 0 0 0 2.13 1.33c1.4 0 3.37-1.1 5.05-1.1zm-4.2-8.68c-.65.05-.68.63-.15.8a9.835 9.835 0 0 1 2.82 1.35.561.561 0 0 1 .03.98 6.717 6.717 0 0 1 -1.03.7c-.32.2-.2.62.23.6a18.329 18.329 0 0 0 3.04-.5.932.932 0 0 0 .88-.85c0-1.13-1.35-2.2-2.95-2.7a8.471 8.471 0 0 0 -2.87-.38zm37.29 1.33c1.1-.18 1.53-.6 1.53-.95 0-.63-2.42-1.03-3.25-1.03-.32 0-.4.13-.37.38.1 1.1.17 2.17.2 3.4a17.446 17.446 0 0 1 -2.18 9.62c-1.57 2.6-3.87 4.82-7.92 7.05-.6.32-.33 1.07.37.82a17.5 17.5 0 0 0 9.2-7.34 15.708 15.708 0 0 0 2-5.9c1.08 6.24 4.2 10.34 8.5 12.67a.765.765 0 0 0 1.17-.28 1.773 1.773 0 0 1 1.1-.7c.65-.2.73-.62-.02-.87-5.75-1.9-10.13-7.22-10.35-16.1zm41.53 3.62a15.776 15.776 0 0 1 -6.93 7.03c-.59.32-.19.94.4.75a16.948 16.948 0 0 0 7.75-5.8c.88.17 1.4.02 1.43-.38.05-.65-1.13-1.4-2.03-1.8a.421.421 0 0 0 -.62.2zm-5.6.73a18.926 18.926 0 0 0 6.1-4.95c.8.12 1.35.12 1.4-.3.07-.63-1.1-1.43-2-1.8a.441.441 0 0 0 -.65.22 15.971 15.971 0 0 1 -5.33 6.03c-.65.47-.17 1.07.48.8zm-8.92 3.05c.07-2.23.07-4.65.05-6.8a1.1 1.1 0 0 0 .92-.48h2.23v7.28zm4.9 1h3.09c.65 0 1.15-.2 1.15-.58a3.948 3.948 0 0 0 -2.04-2.15c-.35 0-1.03.9-1.55 1.73h-.65v-6.75a.937.937 0 0 0 .9-.53h1.67c.82 0 1.3-.22 1.3-.57 0-.63-1.73-2.15-2.22-2.15-.4 0-1.08.92-1.63 1.72h-9.75a.468.468 0 0 0 -.55.5.456.456 0 0 0 .55.5h3c.18 2.4.1 5.2.05 7.28h-3.27a.46.46 0 0 0 -.55.5.453.453 0 0 0 .55.5h3.25c-.23 5.07-1.43 7.54-3.7 10.32-.53.62.05 1.15.6.72 3.85-2.97 4.65-7.07 4.85-11.04h3.25v.6c0 5.69-.1 8.74-.1 9.84a.636.636 0 0 0 .7.75 1 1 0 0 0 1.22-.9c0-1-.12-4.1-.12-9.69zm10.72 1.67a.38.38 0 0 0 -.53.23c-1.62 3.69-4.37 6.17-8.87 8.37-.62.3-.4.92.25.77a16.915 16.915 0 0 0 9.87-7.12c.83.12 1.4.05 1.43-.35 0-.65-1.18-1.52-2.15-1.9zm29.42-1.17c-.6.27-2.2.87-3.79 1.57a5.657 5.657 0 0 1 .84-2.3 4.157 4.157 0 0 1 3.28-2.12c1.05 0 1.65.42 1.65 1.12 0 .95-.75 1.18-1.98 1.73zm.58-3.83c-1.75 0-3.5.95-5 3.55-.87-2.12-2.45-2.3-4.12-1.85.4-.77 1.35-2.4 1.82-3.22a37.131 37.131 0 0 0 5.12-1.18c.7-.27 1.58-.6 1.55-1.17a1.088 1.088 0 0 0 -1.2-.93c-1.05 0-2.02 1.1-4.69 1.7a14.673 14.673 0 0 0 .95-3.4c0-.6-1.08-.87-1.88-.87-.37 0-1.15.15-1.15.5a2.063 2.063 0 0 0 .75 1 1.411 1.411 0 0 1 .25 1.37 7.293 7.293 0 0 1 -.5 1.65 25.708 25.708 0 0 1 -2.77.15c-1.45 0-2.15-.52-3.38-1.65-.4-.37-.75-.25-.67.33.3 1.97 1.3 2.87 3.1 2.87a22.858 22.858 0 0 0 3.1-.2 24.32 24.32 0 0 1 -4.93 6.53 2.108 2.108 0 0 0 -.8 1.59.855.855 0 0 0 .9.9 1.717 1.717 0 0 0 1.28-.92c1.82-2.3 2.62-4.35 4.2-4.35 1.27 0 1.87 1.33 1.97 2.55a10.322 10.322 0 0 1 .03 1.22c-3.25 1.6-4.25 2.78-4.25 4.25 0 1.85 1.57 3.03 4.87 3.03 3.4 0 5.15-.6 5.15-1.33 0-.77-.75-1-1.53-1-1.02 0-2.3.5-4.37.5-1.32 0-2.65-.42-2.65-1.52 0-1.18 1-1.98 2.7-2.83-.02.43-.07.75-.07 1.03a1.013 1.013 0 0 0 1.05 1.05.892.892 0 0 0 .8-1.05c0-.5-.03-1.17-.03-1.75 1.65-.62 4.02-1.35 5.05-1.7 1.6-.52 2.75-1.1 2.75-2.3 0-1.45-1.6-2.55-3.4-2.55z" fill="#010101" fill-rule="evenodd" transform="translate(-2177.94 -1231.59)"/></svg>