<svg height="454.91" viewBox="0 0 30.4 454.91" width="30.4" xmlns="http://www.w3.org/2000/svg"><path d="m3673.42 1251.8c-1.12 0-3.04.51-6.3.51-4.38 0-6.94-1.66-6.94-4.41 0-2.56 2.65-5.54 5.72-7.17a10.124 10.124 0 0 1 4.84-1.12c1.05-.07 1.79-.29 1.79-1.06 0-.8-1.19-1.57-2.24-1.57a17.785 17.785 0 0 1 -5.03.13 7.6 7.6 0 0 1 -4.73-2.75c-.55-.61-1.06-.32-.93.48a4.636 4.636 0 0 0 2.88 3.58 11.631 11.631 0 0 0 1.98.58c.36.06.48.19.1.48-3.2 2.4-6.24 5.63-6.24 9.28 0 3.01 2.88 6.02 9.02 6.02 5.63 0 7.91-.71 7.91-1.76 0-.9-.93-1.22-1.83-1.22zm0 43.2c-1.12 0-3.04.51-6.3.51-4.38 0-6.94-1.66-6.94-4.41 0-2.56 2.65-5.54 5.72-7.17a10.124 10.124 0 0 1 4.84-1.12c1.05-.07 1.79-.29 1.79-1.06 0-.8-1.19-1.56-2.24-1.56a17.89 17.89 0 0 1 -5.03.12 7.552 7.552 0 0 1 -4.73-2.75c-.55-.61-1.06-.32-.93.48a4.636 4.636 0 0 0 2.88 3.58 12.647 12.647 0 0 0 1.98.58c.36.07.48.19.1.48-3.2 2.4-6.24 5.63-6.24 9.28 0 3.01 2.88 6.02 9.02 6.02 5.63 0 7.91-.71 7.91-1.76 0-.9-.93-1.22-1.83-1.22zm-13.63 25.02c-.38-.26-.83-.19-.83.51 0 1.31 1.47 3.07 2.75 3.07a4.853 4.853 0 0 0 1.79-.54c1.86-.83 4.39-2.15 4.93-2.31.58-.16.87.23.64.77-.67 1.63-4.13 5.35-6.21 7.43-1.72 1.72-5.08 4.7-6.14 6.01-.77.96-.8 1.83-.19 2.4.57.55 1.41.1 2.08-.57.8-.8 1.53-1.8 3.36-3.49a11.94 11.94 0 0 1 7.42-3.14c3.26 0 5.02 1.73 5.02 4.42 0 3.71-4.86 6.17-11 6.72-1.41.13-1.44 1.24.03 1.24 8.16 0 13.5-2.2 13.5-7.64 0-3.55-2.91-6.08-6.88-6.08a15.548 15.548 0 0 0 -6.14 1.44c.86-1.25 5.31-5.35 7.26-7.07.64-.58 1.31-1.06 1.28-1.83-.03-1.15-2.04-2.27-3.13-2.27a7.09 7.09 0 0 0 -2.34.54 23.193 23.193 0 0 1 -5.02 1.38 4.208 4.208 0 0 1 -2.18-.99zm5.6 56.29a.6.6 0 0 0 -1.12.41c.77 4.26 4.55 6.66 9.15 6.66 2.75 0 4.87-.35 4.87-1.63 0-.9-.87-1.06-1.6-1.06-.96 0-2.31.13-3.91.13-4.57 0-6.36-2.34-7.39-4.51zm-.83-5.22a13.588 13.588 0 0 1 6.53-1.98c1.24.03 1.4.38.8 1.12-.45.51-1.12 1.15-1.67 1.69-.57.58 0 1.22.74.77 1.18-.7 2.88-1.69 4.03-2.4.86-.51 1.18-.8 1.18-1.41 0-.76-1.47-1.79-4.15-1.79a14.926 14.926 0 0 0 -8.16 2.59 20.246 20.246 0 0 0 -4.36 3.94c-.51.58-.73.38-.6-.26.32-1.53 1.21-2.97 2.04-5.28a3.508 3.508 0 0 0 -.03-2.91 5.2 5.2 0 0 0 -2.91-2.69c-.74-.28-1.09.1-.77.71.77 1.44 1.41 2.17 1.41 3.74 0 3.17-2.5 7.49-2.5 13.19 0 2.3.9 4.95 2.18 4.95a1.128 1.128 0 0 0 1.31-1.28c0-1.12-.83-2.01-.83-4.31 0-2.92 2.18-6.24 5.76-8.39zm12.45 35.78a18.819 18.819 0 0 1 -.87 2.08c-.38.76.16 1.18.87.73.64-.48 1.56-1.18 2.4-1.82.83-.13 1.66-.16 1.69-.83 0-.9-2.08-2.72-2.69-2.72a3.61 3.61 0 0 0 -1.56 1.28h-9.38v-1.15c.99-.23 1.7-.48 1.7-1.16 0-.86-3.11-.96-3.65-.96a.4.4 0 0 0 -.45.48c.07.8.1 1.86.1 2.79h-8.61a8.868 8.868 0 0 0 -.38-1.35c-.32-.73-1.16-.57-1.16.16a5.411 5.411 0 0 1 -.32 2.72c-.76 1.51-2.36 1.7-2.36 2.88a1.142 1.142 0 0 0 1.18 1.19c1.47 0 2.94-1.35 3.17-3.56a3.22 3.22 0 0 0 0-.76zm-9.86 3.32a10.786 10.786 0 0 0 .19-1.24c1.19-.2 1.48-.45 1.48-.84 0-.64-2.21-.92-3.27-.92a.43.43 0 0 0 -.48.57 8.491 8.491 0 0 1 -.22 2.43h-6.85a.59.59 0 0 0 -.7.64.574.574 0 0 0 .7.64h6.37c-1.03 1.96-3.33 3.17-7.75 4.07-1.05.25-.92 1.31.23 1.15 5.57-.7 8.61-2.27 9.89-5.22h7.8c.93 0 1.47-.22 1.47-.67 0-.7-1.95-2.46-2.56-2.46-.41 0-1.12.96-1.72 1.85zm1.38 2.37c-.83-.06-.96.67-.35 1.09a18.687 18.687 0 0 1 2.08 1.66c.95.87 1.56 1.54 2.3 1.25a1.3 1.3 0 0 0 .67-1.79c-.54-1.31-2.59-2.11-4.7-2.21zm-8.23 13.47v-.8c0-.57 0-2.2.04-2.78l.19-.03h5.02c0 .96-.03 2.43-.03 3.61zm.64-4.89a7.764 7.764 0 0 0 -2.49-1.06.4.4 0 0 0 -.48.42 78.153 78.153 0 0 1 .13 8.09.753.753 0 0 0 .83.87c.89 0 1.37-.29 1.37-.96v-1.19h5.19v.58a.932.932 0 0 0 .93 1.09 1.081 1.081 0 0 0 1.34-1.22c0-.8-.06-3.71-.03-5.12a1.1 1.1 0 0 0 .83-.8c0-.64-1.7-1.89-2.27-1.89a2.78 2.78 0 0 0 -1.25 1.19zm-8.35-3.68a.594.594 0 0 0 -.7.64.581.581 0 0 0 .7.64h19.62c.12 1.28.19 4.86.19 5.92.03 1.44.03 2.01-.03 3.1a.824.824 0 0 1 -.93.9c-.35 0-1.22-.07-1.73-.13-.64 0-.77.77 0 1.05 1.7.71 1.6 1.57 2.56 1.57a2.182 2.182 0 0 0 2.34-2.27c-.04-3.1-.04-7.17-.04-9.44a1.871 1.871 0 0 0 1.38-.7h3.49c1.18 0 1.73-.29 1.73-.77 0-.8-2.31-2.82-2.98-2.82-.51 0-1.41 1.25-2.11 2.31zm10.5 29.74a5.152 5.152 0 0 1 1.15 3.24c0 1.72-1.63 5.27-2.62 7.96a12.581 12.581 0 0 0 -1 4.19c0 1.19.48 2.18 1.38 2.18.74 0 1.12-.61 1.22-1.66a29.444 29.444 0 0 1 1.18-5.92 2.664 2.664 0 0 1 2.66-1.96c2.68 0 4.15 3.75 4.09 7.33-.1 5.51-3.45 7.43-9.82 8.8-1.19.26-1.06 1.31.16 1.25 7.13-.38 12.16-3.23 12.16-9.44 0-4.74-2.21-9.5-6.37-9.5a4.293 4.293 0 0 0 -1.95.44c.32-.99 1.44-2.52 1.44-3.87 0-1.44-.83-2.84-2.79-3.87-1.02-.54-1.4.07-.89.83zm-7.49 45.31c.7.93 1.15 1.73 1.98 1.57a1.454 1.454 0 0 0 1.25-1.82c-.25-1.57-2.27-2.44-4.19-2.69-.96-.16-1.15.57-.64 1.12a21.461 21.461 0 0 1 1.6 1.82zm-3.9 5.63a23.409 23.409 0 0 1 1.69 1.76c.74.93 1.25 1.67 2.11 1.47a1.429 1.429 0 0 0 1.16-1.85c-.36-1.6-2.44-2.37-4.36-2.56-.99-.1-1.18.64-.6 1.18zm5.85 6.66c.19-.83-.77-1.12-1.15-.35-.51 1.12-1.6 3.87-2.14 4.83-.26.45-.42.51-.77.41s-.99-.35-1.41-.48a.527.527 0 0 0 -.48.93 4.573 4.573 0 0 1 1.76 2.11 8.4 8.4 0 0 1 0 2.56 1.276 1.276 0 0 0 1.22 1.44c.99 0 1.63-.64 1.63-1.95 0-1.44-.45-2.17-.45-3.1 0-.9 1.31-4.29 1.79-6.4zm4.87 2.78a6.609 6.609 0 0 1 -.52 2.53c-.8 1.41-2.11 1.5-2.2 2.59a1.045 1.045 0 0 0 1.02 1.22c1.34.16 2.72-1.09 3.07-3.17a8.045 8.045 0 0 0 -.16-3.2.605.605 0 0 0 -1.21.03zm6.97-2.94a1.142 1.142 0 0 0 1.09-.83c0-.68-1.6-.84-2.91-.84a.416.416 0 0 0 -.51.52c.19 2.08.25 8.38.16 10.49-.04.71-.16.99-.71 1.03-.35 0-1.18-.07-1.63-.1-.64-.03-.8.83-.03 1.06 1.63.48 1.34 1.56 2.43 1.56 1.15 0 2.05-.64 2.05-2.36zm2.98 3.04c-.8-.45-1.32.13-1 .83.29.77.61 1.6.81 2.34.28 1.15.51 2.04 1.34 2.2a1.433 1.433 0 0 0 1.73-1.21c.28-1.51-1.19-3.11-2.88-4.16zm4.92-.32c-.83-.35-1.21.29-.8.96.45.73.93 1.57 1.32 2.37.51 1.18.86 2.04 1.76 2.04a1.409 1.409 0 0 0 1.47-1.5c.03-1.57-1.79-3.07-3.75-3.87zm2.08-9.83c1.25 0 1.83-.28 1.83-.73-.03-.8-2.4-2.78-3.04-2.78-.51 0-1.44 1.21-2.15 2.23h-7.29c.26-.73.51-1.47.7-2.23.96 0 1.63-.23 1.6-.71a1.418 1.418 0 0 0 -.89-.8 59.751 59.751 0 0 0 7.26-1.34c1.25.45 1.73 0 1.28-.61a7.665 7.665 0 0 0 -1.7-1.47 1.127 1.127 0 0 0 -1.53-.07c-3.59 1.6-9.15 2.4-14.56 2.95-.96.13-.86 1.18.06 1.18 2.02-.03 4.13-.13 6.18-.32a18.41 18.41 0 0 1 -.8 3.42h-7.87a.6.6 0 0 0 -.71.65.579.579 0 0 0 .71.63h7.42c-1.5 3.59-4.06 6.4-7.87 9.06-.9.58-.45 1.54.54 1.06a19.3 19.3 0 0 0 9.7-10.12h1.85a14.2 14.2 0 0 0 8.29 8.71c1.03.35 1.22 0 1.51-.51a2.529 2.529 0 0 1 1.31-1.06c.57-.29.99-.83-.1-.96-4.03-.74-7.93-3.01-9.57-6.18zm-11.03 47.5c2.17 0 3.32 2.05 3.32 4.61 0 5.02-3.61 7.58-9.56 8.51-1.25.19-1.12 1.21.09 1.21 6.85 0 11.97-3.13 11.97-9.28 0-4.7-2.98-6.72-6.18-6.72-1.82 0-3.55.52-5.53.52-1.38 0-2.11-1.22-2.63-1.83-.32-.38-.89-.25-.99.51a3.82 3.82 0 0 0 .32 2.18 2.727 2.727 0 0 0 2.72 1.7c1.79 0 4.32-1.41 6.47-1.41zm-5.38-11.1c-.83.06-.86.8-.19 1.02a12.1 12.1 0 0 1 3.61 1.73.7.7 0 0 1 .04 1.24 8.063 8.063 0 0 1 -1.32.9.413.413 0 0 0 .29.77 24.148 24.148 0 0 0 3.91-.64 1.2 1.2 0 0 0 1.12-1.09c0-1.44-1.73-2.82-3.78-3.45a10.628 10.628 0 0 0 -3.68-.48zm4.54 44.91c1.41-.23 1.96-.77 1.96-1.22 0-.8-3.11-1.31-4.16-1.31-.42 0-.52.16-.48.48.12 1.41.22 2.78.25 4.35.07 3.36-.16 8-2.78 12.32-2.02 3.33-4.96 6.17-10.15 9.02-.76.42-.41 1.38.48 1.06a22.462 22.462 0 0 0 11.78-9.41 20.192 20.192 0 0 0 2.56-7.55c1.38 8 5.37 13.25 10.88 16.22a.979.979 0 0 0 1.5-.35 2.289 2.289 0 0 1 1.41-.9c.83-.25.93-.8-.03-1.12-7.36-2.43-12.96-9.24-13.25-20.6zm9.95 47.81a20.144 20.144 0 0 1 -8.86 9c-.77.41-.25 1.21.51.95 4.51-1.43 8.03-4.95 9.92-7.42 1.12.23 1.79.03 1.83-.48.06-.83-1.44-1.79-2.6-2.3a.538.538 0 0 0 -.8.25zm-7.16.93c3.48-1.53 6.3-4.61 7.8-6.33 1.03.16 1.73.16 1.8-.39.09-.8-1.41-1.82-2.56-2.3a.57.57 0 0 0 -.84.29 20.461 20.461 0 0 1 -6.81 7.71c-.83.61-.22 1.37.61 1.02zm-11.43 3.91c.1-2.85.1-5.96.07-8.71a1.387 1.387 0 0 0 1.18-.61h2.85v9.32zm6.28 1.28h3.96c.83 0 1.48-.26 1.48-.74 0-.74-1.96-2.75-2.63-2.75-.45 0-1.31 1.15-1.98 2.21h-.83v-8.64a1.2 1.2 0 0 0 1.15-.68h2.14c1.06 0 1.66-.28 1.66-.73 0-.8-2.2-2.75-2.84-2.75-.51 0-1.38 1.18-2.08 2.2h-12.48a.6.6 0 0 0 -.71.64.581.581 0 0 0 .71.64h3.84c.22 3.08.13 6.66.06 9.32h-4.19a.59.59 0 0 0 -.7.64.578.578 0 0 0 .7.64h4.16c-.29 6.49-1.82 9.66-4.74 13.21-.67.8.07 1.47.77.93 4.93-3.81 5.95-9.06 6.21-14.14h4.16v.76c0 7.3-.13 11.2-.13 12.61a.819.819 0 0 0 .9.96c1.02 0 1.57-.48 1.57-1.15 0-1.28-.16-5.25-.16-12.42zm13.72 2.14a.475.475 0 0 0 -.67.29c-2.08 4.73-5.6 7.9-11.36 10.72-.8.38-.51 1.18.32.99a21.739 21.739 0 0 0 12.64-9.12c1.06.16 1.79.06 1.82-.45 0-.83-1.5-1.95-2.75-2.43zm-5.53 41.72c-.77.35-2.82 1.12-4.87 2.01a7.355 7.355 0 0 1 1.09-2.94 5.316 5.316 0 0 1 4.19-2.72c1.35 0 2.11.54 2.11 1.44 0 1.21-.96 1.5-2.52 2.21zm.73-4.9c-2.24 0-4.48 1.22-6.4 4.54-1.12-2.72-3.13-2.94-5.28-2.36.52-1 1.73-3.08 2.34-4.13a46.309 46.309 0 0 0 6.56-1.51c.9-.35 2.01-.76 1.98-1.5a1.389 1.389 0 0 0 -1.53-1.18c-1.35 0-2.59 1.41-6.02 2.17a18.89 18.89 0 0 0 1.22-4.35c0-.77-1.38-1.12-2.4-1.12-.48 0-1.47.19-1.47.64a2.512 2.512 0 0 0 .96 1.28 1.858 1.858 0 0 1 .32 1.76 10.075 10.075 0 0 1 -.64 2.11 32.66 32.66 0 0 1 -3.56.19c-1.85 0-2.75-.67-4.32-2.11-.51-.48-.96-.32-.86.42.38 2.53 1.66 3.68 3.97 3.68a30.421 30.421 0 0 0 3.97-.26 31.121 31.121 0 0 1 -6.31 8.35 2.709 2.709 0 0 0 -1.02 2.05 1.086 1.086 0 0 0 1.15 1.15 2.153 2.153 0 0 0 1.63-1.18c2.34-2.94 3.36-5.57 5.38-5.57 1.63 0 2.4 1.7 2.53 3.27a13.914 13.914 0 0 1 .03 1.56c-4.16 2.05-5.44 3.56-5.44 5.44 0 2.37 2.01 3.88 6.24 3.88 4.35 0 6.59-.77 6.59-1.7 0-.99-.96-1.28-1.95-1.28-1.31 0-2.95.64-5.6.64-1.7 0-3.39-.54-3.39-1.95 0-1.51 1.28-2.53 3.45-3.62-.03.55-.09.96-.09 1.31a1.294 1.294 0 0 0 1.34 1.35 1.135 1.135 0 0 0 1.02-1.35c0-.64-.03-1.5-.03-2.24 2.11-.8 5.15-1.72 6.46-2.17 2.05-.67 3.52-1.41 3.52-2.95 0-1.85-2.04-3.26-4.35-3.26z" fill="#010101" fill-rule="evenodd" transform="translate(-3651.38 -1234.03)"/></svg>