<svg xmlns="http://www.w3.org/2000/svg" width="38.75" height="73.56" viewBox="0 0 38.75 73.56">
  <defs>
    <style>
      .cls-1 {
        fill-rule: evenodd;
      }
    </style>
  </defs>
  <path id="text-commit02" class="cls-1" d="M419.919,2481.68c0.042,0.88.042,2.44,0,4.24H410.09c0.042-1.72.042-3.4,0.084-4.24h9.745Zm-9.829,8.69v-2.77h9.829v4.29H410.09v-1.52Zm0.042,7.65-0.042-4.45h9.787v4.45h-9.745Zm0,1.68h9.7v1.26a1.263,1.263,0,0,0,1.3,1.43c1.134,0,1.848-.3,1.848-1.6,0-2.18-.252-13.78-0.084-18.19,0.882-.33,1.765-0.71,1.765-1.38,0-.97-2.647-2.94-3.529-2.94-0.5,0-1.3.88-1.932,1.72h-7.939a11,11,0,0,0-3.738-1.6,0.563,0.563,0,0,0-.63.59c0.546,4.75.168,18.36,0.168,22.09a1.064,1.064,0,0,0,1.176,1.18c1.26,0,1.89-.42,1.89-1.34v-1.22Zm-1.974,7.22c0.5,1.22.882,2.36,2.016,2.44a1.923,1.923,0,0,0,2.142-1.89c0.168-2.02-2.058-3.49-4.242-4.33-1.176-.42-1.68.42-1.176,1.31A16.764,16.764,0,0,1,408.158,2506.92Zm-15.835-2.26a6.751,6.751,0,0,1-.84,3.23c-1.05,1.47-2.815,1.93-2.773,3.4a1.607,1.607,0,0,0,1.681,1.68c2.142-.04,3.612-1.59,3.948-4.07a12.617,12.617,0,0,0-.462-4.41A0.787,0.787,0,0,0,392.323,2504.66Zm6.174-18.07h5.041c0.924,0,1.848-.33,1.848-0.96,0-.97-2.478-3.66-3.36-3.66-0.63,0-1.723,1.52-2.605,2.94h-0.882c0-2.01.042-4.03,0.042-4.95,1.3-.21,2.1-0.63,2.1-1.31,0-1-2.6-1.21-4.62-1.21a0.483,0.483,0,0,0-.546.58c0.21,1.52.294,4.33,0.336,6.89H388.71a0.78,0.78,0,0,0-.924.84,0.76,0.76,0,0,0,.924.84h6.133a32.473,32.473,0,0,1-7.267,11.89c-0.84.92,0,1.81,1.092,1.13a25.237,25.237,0,0,0,7.183-7.81c-0.084,3.15-.252,9.2-0.252,10.29a1.053,1.053,0,0,0,1.176,1.14c1.176,0,1.848-.38,1.848-1.31,0-1.3-.126-9.91-0.126-11.71v-3.62Zm2.815,7.14c0.756,1.05,1.26,2.02,2.31,1.89a1.811,1.811,0,0,0,1.6-2.14c-0.252-1.85-2.52-2.81-4.747-3.27-1.176-.21-1.512.71-0.84,1.42A20.612,20.612,0,0,1,401.312,2493.73Zm16.759,14.24c0-1.05-1.05-1.13-1.344-.16a7.811,7.811,0,0,1-1.092,2.56c-0.672.88-2.31,1.34-7.435,1.34-5.8,0-5.838-.25-5.88-1.59-0.042-1.31,0-2.99.042-4.37,1.092-.17,1.638-0.46,1.638-0.97,0-.96-3.192-1.22-3.949-1.22-0.588,0-.756.17-0.714,0.76,0.168,2.06.084,4.91,0.084,6.22,0,3.57.756,4.07,8.863,4.07,8.4,0,10.459-1.26,10.459-2.39C418.743,2511.04,418.029,2511.42,418.071,2507.97Zm2.94-3.4c-1.176-.42-1.638.42-1.134,1.3a31.071,31.071,0,0,1,1.638,3.07c0.672,1.47,1.176,2.6,2.31,2.65a1.948,1.948,0,0,0,2.143-1.98C426.052,2507.39,423.531,2505.5,421.011,2504.57Zm-1.848,30.69a6.982,6.982,0,0,0-5.208-2.44c-3.445,0-6.007,4.54-9.955,10.59-1.26,1.93-2.478,3.9-3.655,3.9-1.68,0-4.284-1.8-4.284-5.67,0-2.77,1.512-5.33,1.512-7.47,0-2.02-2.6-4.54-5.334-5.04-0.882-.17-1.344.42-0.756,1.09,1.932,2.23,2.52,2.9,2.52,5.12,0,1.89-.462,3.2-0.462,6.56,0,4.83,3.654,9.11,7.183,9.11,1.848,0,2.52-.92,4.032-3.65,2.436-4.41,5.838-12.48,8.947-12.48,2.436,0,4.2,2.9,4.914,6.3,0.462,2.23.5,4.92,1.974,4.92,1.3,0,2.1-1.05,2.1-2.73A12.548,12.548,0,0,0,419.163,2535.26Z" transform="translate(-387.219 -2477.44)"/>
</svg>
