<svg xmlns="http://www.w3.org/2000/svg" width="23.969" height="123.72" viewBox="0 0 23.969 123.72">
  <defs>
    <style>
      .cls-1 {
        fill-rule: evenodd;
      }
    </style>
  </defs>
  <path id="text-commit01" class="cls-1" d="M464.74,2385.47a1.073,1.073,0,0,0,.286-0.15,16.652,16.652,0,0,0,2.574-2.71c0.78,0.05,1.2-.1,1.2-0.49-0.026-.44-1.56-1.3-2.47-1.56a0.364,0.364,0,0,0-.468.34,16.786,16.786,0,0,1-1.664,3.87,0.468,0.468,0,0,0,.13.7H450.959a0.483,0.483,0,0,0-.572.52,0.471,0.471,0,0,0,.572.52h10.349v3.36H452.6a0.483,0.483,0,0,0-.572.52,0.475,0.475,0,0,0,.572.52h8.711c-0.026,2.02-.078,3.43-0.078,4.16a0.665,0.665,0,0,0,.728.78,1.039,1.039,0,0,0,1.274-.94c0-.65-0.052-2.08-0.078-4h8.19c1.014,0,1.456-.24,1.456-0.6,0-.65-1.924-2.21-2.444-2.21-0.416,0-1.118.96-1.69,1.77h-5.512v-2.47a0.826,0.826,0,0,0,.858-0.6,0.361,0.361,0,0,0-.156-0.29h8.658c1.066,0,1.508-.23,1.508-0.62,0-.65-1.976-2.26-2.522-2.26-0.416,0-1.17,1.01-1.742,1.84H464.74Zm-6.267-.41a1.248,1.248,0,0,0,1.483-1.2c0.13-1.3-1.249-2.24-2.627-2.81-0.78-.34-1.144.24-0.832,0.83a14.656,14.656,0,0,1,.754,1.59C457.537,2384.25,457.745,2384.98,458.473,2385.06Zm4.733-5.62v-2.99h7.072c0.988,0,1.456-.23,1.456-0.6-0.026-.62-1.9-2.21-2.418-2.21-0.39,0-1.118.96-1.664,1.77h-4.446v-1.4c0.806-.19,1.378-0.39,1.378-0.97,0-.67-2.548-0.75-2.99-0.75a0.317,0.317,0,0,0-.364.36c0.078,0.63.13,1.62,0.156,2.76H453.4a0.483,0.483,0,0,0-.572.52,0.471,0.471,0,0,0,.572.52h7.983c0.026,1.04.026,2.08,0,2.99H450.907a0.483,0.483,0,0,0-.572.52,0.471,0.471,0,0,0,.572.52h21.737c1.066,0,1.508-.26,1.508-0.62,0-.68-1.976-2.29-2.522-2.29-0.416,0-1.17,1.01-1.742,1.87h-6.682Zm-11.883,38.32a0.483,0.483,0,0,0-.572.52,0.471,0.471,0,0,0,.572.52H472.2c1.326,0,1.82-.23,1.82-0.62,0-.7-2.158-2.57-2.886-2.57-0.546,0-1.4,1.17-2.08,2.15H451.323Zm14.873,31.7a17.931,17.931,0,0,0,3.848-3.98c0.78,0.05,1.248-.08,1.248-0.47,0-.49-1.69-1.4-2.626-1.66-0.286-.08-0.39.08-0.468,0.34a17.145,17.145,0,0,1-2.782,5.17C465.026,2449.48,465.572,2449.93,466.2,2449.46Zm-11.207-2.37c0.494,1.15.728,2,1.534,2.06a1.23,1.23,0,0,0,1.352-1.3c0.078-1.62-1.664-3.2-3.458-3.93-0.728-.29-1.066.23-0.754,0.81A19.438,19.438,0,0,1,454.989,2447.09Zm17.6,5.51c1.066,0,1.508-.26,1.508-0.62,0-.68-1.976-2.29-2.522-2.29-0.416,0-1.2,1.02-1.768,1.87h-6.786v-8.68c0.806-.18,1.378-0.39,1.378-0.96,0-.68-2.626-0.76-3.068-0.76a0.32,0.32,0,0,0-.364.37c0.234,1.74.286,6.71,0.234,10.03H450.959a0.483,0.483,0,0,0-.572.52,0.471,0.471,0,0,0,.572.52h21.633Zm-13.781.58a0.358,0.358,0,0,0-.416.44c0.286,5.74-2.314,8.37-7.488,9.96-0.884.28-.728,1.09,0.208,0.91,6.084-1.15,9.1-4.06,9.257-9.78,0.91-.16,1.2-0.42,1.2-0.75C461.568,2453.44,459.67,2453.18,458.811,2453.18Zm15.029,6.47c0-.62-0.676-0.7-0.832-0.08a10.628,10.628,0,0,1-.65,1.95c-0.364.7-1.17,0.96-3.744,0.96-2.86,0-2.938-.2-2.964-1.24-0.026-1.41,0-4.61.078-6.66,0.728-.13,1.066-0.31,1.066-0.68,0-.57-1.742-0.75-2.548-0.75-0.364,0-.468.1-0.442,0.47,0.182,2.57.052,7.15,0.052,7.95,0,2.29.494,2.66,4.81,2.66,4.368,0,5.616-.73,5.616-1.43C474.282,2461.99,473.814,2462.35,473.84,2459.65Zm-10.166,23.79c-1.222,3.48-4.967,8.55-7.463,8.55-0.754,0-1.456-1.22-1.586-3.22a6.884,6.884,0,0,1,2.054-5.72,7.465,7.465,0,0,1,5.279-1.92,11.554,11.554,0,0,1,2.184.2A8.127,8.127,0,0,1,463.674,2483.44Zm-1.638-3.61a9.917,9.917,0,0,0-6.371,2.31,8.473,8.473,0,0,0-2.73,7.23c0.234,3.07,1.586,4.96,2.964,4.96,3.12,0,7.463-5.17,8.971-9.33a12.571,12.571,0,0,0,.728-3.2,6.409,6.409,0,0,1,4.03,6.19c0,4.26-2.912,6.16-7.41,7.05-0.806.15-.754,0.96,0.156,0.96,5.356,0,9.36-2.58,9.36-7.57C471.734,2483.75,468.25,2479.83,462.036,2479.83Z" transform="translate(-450.312 -2372.28)"/>
</svg>
