<svg xmlns="http://www.w3.org/2000/svg" width="362.125" height="37.97" viewBox="0 0 362.125 37.97">
  <defs>
    <style>
      .cls-1 {
        fill-rule: evenodd;
      }
    </style>
  </defs>
  <path id="ショールームのご案内" class="cls-1" d="M537.8,4417.98c2.021,1.76,4,3.44,5.031,4.55,1.247,1.34,2.236,1.72,3.139,1.04s0.86-2.37-.43-3.66a11.914,11.914,0,0,0-7.052-3.18C537.586,4416.6,537.2,4417.46,537.8,4417.98Zm6.149-7.01a35.637,35.637,0,0,1,4.6,4.3c1.376,1.59,2.365,1.85,3.139,1.33,1.032-.69,1.2-2.37-0.086-3.78-1.5-1.68-4.429-2.84-7.009-3.19C543.649,4409.5,543.176,4410.36,543.95,4410.97Zm-4.429,19.95c-0.6-.35-1.075,0-1.032.77,0.129,2.37,3.182,4.73,5.2,4.73a9.66,9.66,0,0,0,3.741-1.55c7.482-4.25,15.308-11.39,19.092-17.75a0.932,0.932,0,0,0-1.548-1.04c-4.6,5.77-12.212,12.82-19.952,16.21a3.437,3.437,0,0,1-3.182-.04C541.241,4431.95,540.123,4431.26,539.521,4430.92Zm49.192-14.19a17.186,17.186,0,0,0-2.021.6c-1.935.26-9.03,1.12-9.89,1.16-0.946.04-1.806-.73-2.58-1.07a0.762,0.762,0,0,0-1.2.81c0.258,1.81,1.634,3.31,3.01,3.27,2.408-.08,9.933-1.68,11.266-1.76,1.075-.04,1.075.04,1.118,1.2a73.616,73.616,0,0,1-1.118,10.62,2.031,2.031,0,0,0-1.118-.17c-2.967.26-7.654,0.99-9.8,1.08a3.434,3.434,0,0,1-2.236-.86c-0.731-.56-1.462-0.18-1.333.73,0.215,1.54,1.677,3.14,2.924,3.14a25.391,25.391,0,0,0,3.526-.56,60.258,60.258,0,0,1,7.009-.91c0.43,1.04.989,1.68,1.591,1.68a2.224,2.224,0,0,0,1.935-1.81c0.559-2.4,1.591-9.84,1.763-11.48,0.086-1.2.86-2.4,0.86-3.22C592.411,4418.15,590.089,4416.64,588.713,4416.73Zm-11.739,11.18a64.7,64.7,0,0,0,8.256-1.16c1.29-.22,1.849-0.65,1.849-1.38,0-.94-1.5-1.63-2.881-1.42-1.591.26-4.085,1.25-6.708,1.12a4.807,4.807,0,0,1-2.021-.56c-0.774-.43-1.376-0.08-1.29.69A3.038,3.038,0,0,0,576.974,4427.91Zm25.757-6.92c-0.688-.43-1.2-0.13-1.2.6,0,2.02,2.107,4.68,3.956,4.68a35.338,35.338,0,0,0,4.773-.73c2.021-.34,11.094-1.42,14.448-1.42,3.225,0,4.042.22,5.633,0.22,1.333,0,1.763-.56,1.763-1.2,0-1.85-2.709-2.84-4.472-2.84-1.72,0-2.709.43-6.364,0.9-2.967.39-12.556,1.38-14.835,1.38C604.924,4422.58,603.763,4421.63,602.731,4420.99Zm39.13-2.76c0,0.56.989,0.91,1.849,1.42,1.161,0.73,1.591.95,1.634,2.02,0.129,4.65-5.2,9.55-10.922,12.52-1.161.6-.559,1.8,0.6,1.5,7.224-1.85,14.018-8.56,14.018-14.92,0-1.93-2.8-3.53-4.9-3.53C643.194,4417.24,641.861,4417.72,641.861,4418.23Zm11.739,8a24.346,24.346,0,0,0-.731,3.31c0,1.25,1.462,3.48,2.666,3.48,1.333,0,1.978-1.11,3.139-1.63a44.978,44.978,0,0,0,13.2-9.07c1.247-1.38.086-2.54-1.247-1.46a52.6,52.6,0,0,1-13.115,7.48c-1.075.39-1.548,0.04-1.333-1.29,0.3-1.89,1.032-7.83,1.075-9.33,0.043-1.12.3-2.32,0.3-3.18,0-1.17-2.365-2.84-4.988-2.84-0.774,0-2.15.51-2.15,1.2,0,0.39.516,0.69,2.021,1.46,1.161,0.61,1.462,1.25,1.634,2.93A42.392,42.392,0,0,1,653.6,4426.23Zm23.951-5.24c-0.688-.43-1.2-0.13-1.2.6,0,2.02,2.107,4.68,3.956,4.68a35.338,35.338,0,0,0,4.773-.73c2.021-.34,11.094-1.42,14.448-1.42,3.225,0,4.042.22,5.633,0.22,1.333,0,1.763-.56,1.763-1.2,0-1.85-2.709-2.84-4.472-2.84-1.72,0-2.709.43-6.364,0.9-2.967.39-12.556,1.38-14.835,1.38C679.744,4422.58,678.583,4421.63,677.551,4420.99Zm55.3,0.73c-1.462-.65-2.15.34-0.989,1.5a23.823,23.823,0,0,1,2.838,3.48c-3.526.74-9.632,1.72-13.975,2.33,2.58-4.82,4.816-9.55,6.321-12.6,0.817-1.68,1.677-2.32,1.677-3.06,0-1.33-2.967-3.09-4.816-3.09-1.2,0-1.763.39-1.763,0.86a2.888,2.888,0,0,0,.946,1.33c0.86,0.95.946,1.33,0.817,2.07-0.6,3.26-3.225,9.67-6.106,14.83a13.365,13.365,0,0,1-1.849.17,12.423,12.423,0,0,1-2.666-.51,1,1,0,0,0-1.419.99c0,1.54,1.806,3.74,3.182,3.74,1.075,0,2.494-.82,4.085-1.17,1.333-.25,12.427-2.92,16.77-3.91,0.946,1.98,1.849,4.39,3.139,4.39,1.247,0,1.677-.91,1.677-2.11C740.718,4427.39,736.547,4423.35,732.849,4421.72Zm31.5-4.51c-1.786,5.09-7.257,12.5-10.9,12.5-1.1,0-2.128-1.79-2.318-4.71a10.056,10.056,0,0,1,3-8.36,10.921,10.921,0,0,1,7.712-2.81,16.868,16.868,0,0,1,3.192.3A11.913,11.913,0,0,1,764.347,4417.21Zm-2.394-5.28a14.451,14.451,0,0,0-9.308,3.38,12.391,12.391,0,0,0-3.99,10.56c0.342,4.49,2.318,7.26,4.332,7.26,4.559,0,10.9-7.56,13.108-13.64a18.354,18.354,0,0,0,1.064-4.67,9.349,9.349,0,0,1,5.889,9.04c0,6.23-4.256,9-10.829,10.3-1.177.22-1.1,1.4,0.228,1.4,7.827,0,13.678-3.76,13.678-11.06C776.125,4417.67,771.034,4411.93,761.953,4411.93Zm44.484,19.72c-1.47,0-3.99.67-8.275,0.67-5.755,0-9.116-2.18-9.116-5.8,0-3.36,3.487-7.26,7.52-9.41a13.541,13.541,0,0,1,6.343-1.47c1.386-.08,2.352-0.37,2.352-1.38,0-1.05-1.554-2.06-2.94-2.06s-3.361.71-6.6,0.17a10.03,10.03,0,0,1-6.218-3.62c-0.714-.79-1.386-0.42-1.218.63a6.118,6.118,0,0,0,3.781,4.71,16.15,16.15,0,0,0,2.6.76c0.462,0.08.631,0.25,0.126,0.63-4.2,3.15-8.191,7.39-8.191,12.18,0,3.95,3.781,7.89,11.846,7.89,7.393,0,10.376-.92,10.376-2.31C808.832,4432.07,807.614,4431.65,806.437,4431.65Zm1.891-27.64c-0.8,0-1.092.71-.42,1.22a21,21,0,0,1,3.108,2.6c0.8,0.88,1.219,1.22,1.849,1.22a1.347,1.347,0,0,0,1.386-1.47C814.251,4405.44,811.016,4404.05,808.328,4404.01Zm-3.319,3.48a0.638,0.638,0,0,0-.5,1.14c0.84,0.8,1.806,1.68,2.521,2.52,0.966,1.13,1.26,1.85,2.226,1.85a1.4,1.4,0,0,0,1.428-1.47C810.68,4409.55,807.74,4407.7,805.009,4407.49Zm22.3-.08h24.2c-0.378.8-.882,1.68-1.386,2.52-0.63.92,0.126,1.6,1.05,1.05,0.966-.59,2.31-1.55,3.445-2.39,1.092-.21,2.226-0.3,2.226-1.1,0-1.26-2.646-3.48-3.4-3.48-0.462,0-1.386.88-2.1,1.72H841.212v-1.39c1.3-.29,2.227-0.63,2.227-1.51,0-1.13-4.075-1.26-4.789-1.26a0.528,0.528,0,0,0-.588.63c0.084,1.05.126,2.35,0.126,3.53H827.224a8.975,8.975,0,0,0-.462-1.97,0.766,0.766,0,0,0-1.513.16,6.691,6.691,0,0,1-.588,2.99c-0.882,1.55-2.436,1.8-2.436,3.23a1.531,1.531,0,0,0,1.6,1.55c2.016,0,3.277-1.68,3.487-3.9v-0.38Zm9.115,6.51h8.108l-0.126.25a10.173,10.173,0,0,1-2.941,3.78c-2.31-.42-4.789-0.75-7.141-1Zm19.66,14.91c1.68,0,2.352-.37,2.352-0.96,0-1.05-3.108-3.57-3.948-3.57-0.673,0-1.807,1.55-2.731,2.85H841.044c0-1.17.042-2.31,0.042-2.81,1.176-.17,1.807-0.59,1.807-1.14,0-.75-1.891-0.96-3.277-1.05,0.336-.12.588-0.29,0.882-0.42a23.276,23.276,0,0,0,2.016-1.17c4.579,1.55,6.47,3.65,7.9,3.65a1.334,1.334,0,0,0,1.386-1.43c0.084-1.55-3.108-3.1-6.931-4.11a14.252,14.252,0,0,0,2.31-2.61c1.218-.04,1.681-0.29,1.723-0.75a2.1,2.1,0,0,0-1.429-1.39h8.99c1.554,0,2.142-.29,2.142-0.88,0-.93-2.814-3.24-3.57-3.24-0.546,0-1.555,1.31-2.353,2.44H837.6c0.588-.88,1.05-1.55,1.26-1.85,1.092,0.04,1.764-.12,1.764-0.63,0-.71-1.764-1.34-3.066-1.64a0.765,0.765,0,0,0-1.051.47,26.085,26.085,0,0,1-2.1,3.65h-12.35a0.78,0.78,0,0,0-.924.84,0.764,0.764,0,0,0,.924.84h11.174c-1.3,1.77-2.647,3.36-3.529,4.37-0.5.59-.5,1.18,0.294,1.51a2.325,2.325,0,0,0,2.689-.54c0.126-.13.294-0.42,0.588-0.8a58.789,58.789,0,0,1,5.881,1.17l-0.21.13c-3.025,1.81-8.78,3.23-14.745,4.07-1.176.17-1.134,1.47,0.168,1.39a52.9,52.9,0,0,0,13.653-2.44,41.716,41.716,0,0,1,.21,4.37H821.973a0.78,0.78,0,0,0-.924.84,0.76,0.76,0,0,0,.924.84h13.988c-3.066,3.57-8.233,6.47-14.66,8.87-1.177.46-.714,1.59,0.546,1.3,7.183-1.72,12.686-4.5,16.425-7.98-0.042,1.76-.21,6.68-0.21,7.39a1,1,0,0,0,1.134,1.09c1.176,0,1.89-.25,1.89-1.17,0-.97-0.042-6.39-0.042-7.31v-1.81a22.766,22.766,0,0,0,13.611,9.03c1.092,0.26,1.386.05,2.016-.84a3.4,3.4,0,0,1,1.722-1.22c0.84-.29,1.008-1.13-0.252-1.3-5.755-.8-11.426-2.27-15.291-6.05h13.233Zm35.405-1.72a1.778,1.778,0,0,0,1.176-2.52c-0.588-1.97-3.361-4.58-8.276-5.67a0.74,0.74,0,0,0-.756,1.26,34.062,34.062,0,0,1,3.109,2.81c1.176,1.22,1.974,2.44,2.646,3.2C890.059,4426.99,890.564,4427.36,891.488,4427.11Zm-8.318-17.64c0.084-1.51.084-3.11,0.042-4.87,1.428-.26,1.891-0.84,1.891-1.39,0-.93-2.563-1.39-4.453-1.39-0.8,0-1.134.17-1.008,0.97a40.564,40.564,0,0,1,.378,4.45c0,0.76,0,1.51-.042,2.23h-10.46a12.341,12.341,0,0,0-3.949-1.6,0.577,0.577,0,0,0-.588.59c0.63,5.71.168,25.2,0.168,29.87a1.072,1.072,0,0,0,1.218,1.22c1.344,0,1.975-.51,1.975-1.43,0-1.52-.084-13.49-0.084-14.75,0-1.43,0-9.53.168-12.01a4.689,4.689,0,0,0,.882-0.21h10.586c-0.63,8.32-3.7,11.89-9.956,15.75-1.3.8-.63,2.19,0.84,1.56,7.645-3.37,11.426-7.82,12.266-17.31h11.888v11.72c0,3.61.084,8.65-.084,11.17a1.418,1.418,0,0,1-1.638,1.6c-0.924,0-2.646-.25-3.025-0.25a0.693,0.693,0,0,0-.084,1.38c2.9,0.8,1.975,2.52,3.571,2.52a3.809,3.809,0,0,0,3.991-3.69c0-7.73-.042-17.48.126-23.4,0.966-.34,1.848-0.8,1.848-1.39,0-.8-2.814-3.19-3.865-3.19a6.111,6.111,0,0,0-1.806,1.85h-10.8Z" transform="translate(-537.5 -4401.56)"/>
</svg>
